<svg width="300" height="55" viewBox="0 0 582 135" fill="none" xmlns="http://www.w3.org/2000/svg">
<rect width="582" height="135" fill="#F5F5F5"/>
<path d="M0 1C0 0.447718 0.447715 0 1 0H581C581.552 0 582 0.447715 582 1V134C582 134.552 581.552 135 581 135H1.00001C0.447721 135 0 134.552 0 134V1Z" fill="#1A2D53"/>
<path d="M254.284 30.6355C253.9 31.7022 253.345 32.6195 252.62 33.3875C251.895 34.1128 250.807 34.4755 249.356 34.4755C248.673 34.4755 248.055 34.3475 247.5 34.0915C246.945 33.7928 246.497 33.3022 246.156 32.6195C245.9 32.1502 245.772 31.6382 245.772 31.0835C245.772 30.4008 245.943 29.7822 246.284 29.2275C246.668 28.6728 247.201 28.3742 247.884 28.3315C247.969 28.3315 248.055 28.3315 248.14 28.3315C248.268 28.2888 248.353 28.2675 248.396 28.2675C249.079 28.2675 249.612 28.5235 249.996 29.0355C250.124 29.2062 250.188 29.3768 250.188 29.5475C250.188 29.8462 250.017 30.1662 249.676 30.5075C249.377 30.8062 249.079 31.1262 248.78 31.4675C248.524 31.8088 248.46 32.1928 248.588 32.6195C248.844 33.3875 249.313 33.7715 249.996 33.7715C250.636 33.7715 251.319 33.4302 252.044 32.7475C252.812 32.0222 253.409 31.0195 253.836 29.7395C253.964 29.4835 254.028 29.1848 254.028 28.8435C254.028 28.2035 253.772 27.5422 253.26 26.8595C252.748 26.1768 252.087 25.6862 251.276 25.3875C250.935 25.2595 250.551 25.1528 250.124 25.0675C249.74 24.9822 249.356 24.9395 248.972 24.9395C247.436 24.9395 245.921 25.3875 244.428 26.2835C242.935 27.1795 241.911 28.4168 241.356 29.9955C241.143 30.5502 240.993 31.0835 240.908 31.5955C240.823 32.1075 240.78 32.5768 240.78 33.0035C240.78 34.2408 241.1 35.2862 241.74 36.1395C242.38 36.9928 243.191 37.7608 244.172 38.4435C245.196 39.1262 246.263 39.8302 247.372 40.5555C248.481 41.2382 249.527 42.0275 250.508 42.9235C251.532 43.8195 252.364 44.9075 253.004 46.1875C253.644 47.4675 253.964 49.0462 253.964 50.9235C253.964 51.9902 253.836 53.1848 253.58 54.5075C253.324 55.8302 252.897 57.3022 252.3 58.9235C251.575 60.8862 250.487 62.6568 249.036 64.2355C247.628 65.8568 245.985 67.1368 244.108 68.0755C242.273 69.0142 240.332 69.4835 238.284 69.4835C236.876 69.4835 235.468 69.2275 234.06 68.7155C231.969 67.9475 230.561 66.9662 229.836 65.7715C229.068 64.6195 228.684 63.4462 228.684 62.2515C228.684 61.4408 228.791 60.6728 229.004 59.9475C229.217 59.2222 229.409 58.5822 229.58 58.0275C229.879 57.1742 230.476 56.2995 231.372 55.4035C232.311 54.5075 233.356 53.7608 234.508 53.1635C235.66 52.5235 236.727 52.2035 237.708 52.2035C238.135 52.2035 238.54 52.2675 238.924 52.3955C239.735 52.6088 240.14 53.4622 240.14 54.9555C240.14 55.3822 240.097 55.8088 240.012 56.2355C239.927 56.6622 239.799 57.1102 239.628 57.5795C239.329 58.3902 238.881 59.0515 238.284 59.5635C237.729 60.0755 236.983 60.3315 236.044 60.3315C235.575 60.3315 235.127 60.3102 234.7 60.2675C234.316 60.1822 234.017 59.9688 233.804 59.6275C233.761 59.5422 233.719 59.4568 233.676 59.3715C233.676 59.2862 233.676 59.2008 233.676 59.1155C233.676 58.4328 234.017 57.8568 234.7 57.3875C235.041 57.1315 235.361 57.1315 235.66 57.3875C235.959 57.6435 236.257 57.9208 236.556 58.2195C236.897 58.4755 237.26 58.5608 237.644 58.4755C238.327 58.3048 238.775 57.9208 238.988 57.3235C239.201 56.7262 239.308 56.0648 239.308 55.3395C239.308 55.1262 239.308 54.9128 239.308 54.6995C239.308 54.4862 239.287 54.2728 239.244 54.0595C239.201 53.3342 238.839 52.9715 238.156 52.9715C237.644 52.9715 237.004 53.1848 236.236 53.6115C235.511 54.0382 234.764 54.5715 233.996 55.2115C233.271 55.8088 232.631 56.4275 232.076 57.0675C231.521 57.6648 231.18 58.1342 231.052 58.4755C230.668 59.5422 230.476 60.5448 230.476 61.4835C230.476 63.7448 231.671 65.3235 234.06 66.2195C234.316 66.3048 234.615 66.3475 234.956 66.3475C235.809 66.3475 236.961 66.1555 238.412 65.7715C239.905 65.3875 241.484 64.7688 243.148 63.9155C244.812 63.0622 246.369 61.9102 247.82 60.4595C249.271 59.0088 250.38 57.2168 251.148 55.0835C251.532 54.0595 251.809 53.1208 251.98 52.2675C252.151 51.4142 252.236 50.6248 252.236 49.8995C252.236 48.2782 251.873 46.9342 251.148 45.8675C250.465 44.7582 249.548 43.8408 248.396 43.1155C247.287 42.3902 246.113 41.7288 244.876 41.1315C243.639 40.5342 242.444 39.9155 241.292 39.2755C240.183 38.5928 239.265 37.8035 238.54 36.9075C237.857 35.9688 237.516 34.7955 237.516 33.3875C237.516 32.8755 237.559 32.3208 237.644 31.7235C237.772 31.0835 237.964 30.4222 238.22 29.7395C239.073 27.3502 240.311 25.6435 241.932 24.6195C243.596 23.5955 245.345 23.0835 247.18 23.0835C247.948 23.0835 248.716 23.1688 249.484 23.3395C250.252 23.4675 250.999 23.6595 251.724 23.9155C252.961 24.3422 253.793 24.8755 254.22 25.5155C254.689 26.1555 254.924 26.8595 254.924 27.6275C254.924 28.0968 254.86 28.5875 254.732 29.0995C254.647 29.5688 254.497 30.0808 254.284 30.6355ZM278.298 57.1955C278.426 57.0675 278.597 57.0035 278.81 57.0035C279.109 57.0035 279.258 57.1528 279.258 57.4515C279.258 57.6222 279.152 57.8782 278.938 58.2195C278.768 58.5608 278.384 58.9662 277.786 59.4355C277.189 59.9475 276.57 60.4168 275.93 60.8435C275.333 61.2702 274.501 61.4835 273.434 61.4835C272.282 61.4835 271.365 61.2702 270.682 60.8435C270.042 60.4168 269.573 59.9475 269.274 59.4355C269.018 58.8808 268.848 58.4542 268.762 58.1555C268.25 58.5395 267.717 59.0515 267.162 59.6915C266.65 60.2888 265.904 60.8435 264.922 61.3555C263.941 61.8248 262.533 62.0595 260.698 62.0595C259.674 62.0595 258.736 61.8248 257.882 61.3555C257.072 60.8435 256.666 59.7555 256.666 58.0915C256.666 57.6222 256.688 57.1315 256.73 56.6195C256.816 56.0648 256.944 55.4675 257.114 54.8275C257.626 52.8222 258.224 51.2435 258.906 50.0915C259.589 48.9395 260.613 48.0862 261.978 47.5315C262.832 47.1902 263.877 46.8702 265.114 46.5715C266.352 46.2728 267.44 46.0168 268.378 45.8035C268.677 45.7182 268.933 45.4408 269.146 44.9715C269.402 44.4595 269.68 43.9902 269.978 43.5635C270.149 43.3502 270.341 43.1795 270.554 43.0515C270.768 42.8808 271.002 42.7955 271.258 42.7955C271.472 42.7955 271.749 42.9022 272.09 43.1155C272.389 43.3288 272.581 43.7342 272.666 44.3315C272.794 44.9288 272.858 45.4835 272.858 45.9955C272.816 46.2515 272.709 46.5715 272.538 46.9555C272.41 47.2968 272.304 47.6808 272.218 48.1075C272.133 48.6622 271.92 49.4515 271.578 50.4755C271.237 51.4995 271.066 52.3528 271.066 53.0355C271.066 53.6328 271.024 54.3795 270.938 55.2755C270.853 56.1288 270.853 56.7262 270.938 57.0675C271.408 58.0915 272.069 58.7742 272.922 59.1155C273.776 59.4142 274.522 59.4995 275.162 59.3715C275.632 59.2862 276.165 59.0088 276.762 58.5395C277.36 58.0702 277.872 57.6222 278.298 57.1955ZM267.93 49.8995C267.845 49.5582 267.632 49.1955 267.29 48.8115C266.992 48.4275 266.608 48.2355 266.138 48.2355C266.053 48.2355 265.882 48.2782 265.626 48.3635C264.901 48.6195 264.133 49.1102 263.322 49.8355C262.512 50.5182 261.808 51.4142 261.21 52.5235C260.613 53.6328 260.272 54.9342 260.186 56.4275C260.186 56.8542 260.314 57.4088 260.57 58.0915C260.869 58.7742 261.253 59.3502 261.722 59.8195C262.192 60.2888 262.661 60.4168 263.13 60.2035C264.154 59.7768 265.008 59.1795 265.69 58.4115C266.416 57.6008 267.013 56.6195 267.482 55.4675C267.696 54.9128 267.845 54.3368 267.93 53.7395C268.058 53.0995 268.122 52.5022 268.122 51.9475C268.122 51.4355 268.101 51.0088 268.058 50.6675C268.016 50.2835 267.973 50.0275 267.93 49.8995ZM293.272 54.3795C292.717 55.3182 292.013 56.3422 291.16 57.4515C290.307 58.5182 289.411 59.4355 288.472 60.2035C287.576 60.9715 286.723 61.3555 285.912 61.3555C284.589 61.3555 283.544 61.2915 282.776 61.1635C282.051 60.9928 281.453 60.7582 280.984 60.4595C280.173 59.9048 279.512 59.1795 279 58.2835C278.488 57.3875 278.189 56.4702 278.104 55.5315C278.061 55.2755 278.04 55.0195 278.04 54.7635C278.04 54.5075 278.04 54.2728 278.04 54.0595C278.04 51.5422 278.531 49.3235 279.512 47.4035C280.493 45.4835 281.88 44.3315 283.672 43.9475C284.227 43.8622 284.653 44.0968 284.952 44.6515C285.251 45.1635 285.4 45.8675 285.4 46.7635C285.4 48.1288 285.037 49.6008 284.312 51.1795C284.013 51.8195 283.693 52.4382 283.352 53.0355C283.053 53.5902 282.797 54.0382 282.584 54.3795C282.029 55.1902 281.603 55.7448 281.304 56.0435C281.048 56.2995 280.92 56.5555 280.92 56.8115C280.92 57.4942 281.347 58.1555 282.2 58.7955C283.053 59.4355 284.376 59.7555 286.168 59.7555C286.851 59.7555 287.555 59.4568 288.28 58.8595C289.005 58.2622 289.709 57.5155 290.392 56.6195C291.117 55.7235 291.757 54.8275 292.312 53.9315C292.568 53.5048 292.803 53.2915 293.016 53.2915C293.272 53.2915 293.4 53.4835 293.4 53.8675C293.4 54.0382 293.357 54.2088 293.272 54.3795ZM283.672 46.3155C283.501 46.0595 283.139 46.1235 282.584 46.5075C282.072 46.8488 281.603 47.6595 281.176 48.9395C280.877 49.8782 280.728 50.9662 280.728 52.2035C280.728 52.5448 280.728 52.8862 280.728 53.2275C280.771 53.5688 280.813 53.9102 280.856 54.2515C281.581 53.0142 282.093 52.0968 282.392 51.4995C282.733 50.8595 282.989 50.1982 283.16 49.5155C283.245 49.1742 283.373 48.7475 283.544 48.2355C283.757 47.7235 283.864 47.2755 283.864 46.8915C283.864 46.6355 283.8 46.4435 283.672 46.3155ZM303.489 36.3315C303.19 36.3315 302.892 36.2888 302.593 36.2035C302.337 36.0755 302.081 35.9262 301.825 35.7555C301.27 35.4995 300.993 34.9448 300.993 34.0915C300.993 33.7075 301.078 33.2808 301.249 32.8115C301.462 32.3422 301.782 31.8942 302.209 31.4675C302.508 31.1688 302.87 31.0195 303.297 31.0195C303.681 31.0195 304.044 31.1688 304.385 31.4675C304.556 31.6382 304.662 31.9155 304.705 32.2995C304.79 32.6408 304.833 33.0248 304.833 33.4515C304.833 33.9635 304.79 34.4755 304.705 34.9875C304.62 35.4568 304.47 35.7982 304.257 36.0115C303.958 36.2248 303.702 36.3315 303.489 36.3315ZM296.961 61.4835C295.382 61.4835 294.294 61.1208 293.697 60.3955C293.1 59.6702 292.801 58.7955 292.801 57.7715C292.801 57.3022 292.844 56.8328 292.929 56.3635C293.014 55.8942 293.121 55.4248 293.249 54.9555C292.822 55.7235 292.161 56.6195 291.265 57.6435C290.369 58.6248 289.537 59.4142 288.769 60.0115C288.598 60.1395 288.428 60.2035 288.257 60.2035C288.001 60.2035 287.873 60.0542 287.873 59.7555C287.873 59.4142 288.001 59.1155 288.257 58.8595C290.049 56.9822 291.414 55.4675 292.353 54.3155C293.292 53.1208 294.017 52.1182 294.529 51.3075C295.041 50.4968 295.532 49.7502 296.001 49.0675C296.385 47.8302 296.726 46.6355 297.025 45.4835C297.366 44.2888 297.878 43.0728 298.561 41.8355C298.774 41.4515 299.201 41.2595 299.841 41.2595C300.268 41.2595 300.652 41.3662 300.993 41.5795C301.334 41.7928 301.505 42.1555 301.505 42.6675C301.505 42.9235 301.441 43.2222 301.313 43.5635C300.844 44.8862 300.332 46.0168 299.777 46.9555C299.265 47.8515 298.582 49.0035 297.729 50.4115C296.833 51.8622 296.108 53.2702 295.553 54.6355C295.041 56.0008 294.785 57.1528 294.785 58.0915C294.785 58.6888 294.913 59.1795 295.169 59.5635C295.468 59.9475 295.894 60.1395 296.449 60.1395C297.644 60.1822 298.561 59.9902 299.201 59.5635C299.841 59.0942 300.374 58.6462 300.801 58.2195C301.356 57.6222 301.825 57.0675 302.209 56.5555C302.636 56.0435 303.02 55.5955 303.361 55.2115C303.617 54.9555 303.745 54.9982 303.745 55.3395C303.745 55.5528 303.681 55.8302 303.553 56.1715C303.468 56.5128 303.361 56.7688 303.233 56.9395C302.806 57.5368 302.294 58.1982 301.697 58.9235C301.142 59.6488 300.481 60.2675 299.713 60.7795C298.945 61.2488 298.028 61.4835 296.961 61.4835ZM329.509 26.9235C329.04 29.6542 328.315 32.3208 327.333 34.9235C326.352 37.4835 325.264 39.8942 324.069 42.1555C322.875 44.3742 321.723 46.4008 320.613 48.2355C319.504 50.0275 318.587 51.5208 317.861 52.7155C317.179 53.8675 316.837 54.6355 316.837 55.0195C316.837 55.0195 316.88 55.2755 316.965 55.7875C317.051 56.2995 317.2 56.8968 317.413 57.5795C317.627 58.2195 317.904 58.7955 318.245 59.3075C318.587 59.8195 318.992 60.0755 319.461 60.0755C320.059 60.0755 320.72 59.8835 321.445 59.4995C322.213 59.0728 322.811 58.6888 323.237 58.3475C324.091 57.6222 324.624 57.2595 324.837 57.2595C324.965 57.2595 325.029 57.3235 325.029 57.4515C325.029 57.6222 324.923 57.8995 324.709 58.2835C324.496 58.6675 324.283 58.9448 324.069 59.1155C323.387 59.7128 322.683 60.2888 321.957 60.8435C321.275 61.3555 320.571 61.6115 319.845 61.6115C318.693 61.6115 317.797 61.2702 317.157 60.5875C316.517 59.8622 316.048 59.0728 315.749 58.2195C315.451 57.3662 315.195 56.7048 314.981 56.2355C313.915 56.7048 312.976 57.2168 312.165 57.7715C311.397 58.3262 310.651 58.7955 309.925 59.1795C309.2 59.5635 308.389 59.7555 307.493 59.7555C306 59.7555 304.699 59.2648 303.589 58.2835C302.48 57.2595 301.925 56.1502 301.925 54.9555C301.925 52.6515 302.416 50.7955 303.397 49.3875C304.421 47.9795 305.723 46.9555 307.301 46.3155C308.88 45.6328 310.48 45.2915 312.101 45.2915C313.211 45.2915 314.235 45.4195 315.173 45.6755C315.813 43.3715 316.368 41.5368 316.837 40.1715C317.307 38.7635 317.776 37.5048 318.245 36.3955C318.757 35.2435 319.333 33.9422 319.973 32.4915C320.571 31.0408 321.296 29.5902 322.149 28.1395C323.045 26.6462 324.027 25.2382 325.093 23.9155C325.477 23.4035 325.861 22.9768 326.245 22.6355C326.672 22.2942 327.163 22.1235 327.717 22.1235C328.528 22.1235 329.061 22.4008 329.317 22.9555C329.573 23.4675 329.701 24.0862 329.701 24.8115C329.701 25.5795 329.637 26.2835 329.509 26.9235ZM327.973 25.8995C327.419 26.3262 326.587 27.3715 325.477 29.0355C324.411 30.6568 323.365 32.5128 322.341 34.6035C321.573 36.2248 320.805 37.8675 320.037 39.5315C319.269 41.1528 318.608 42.5822 318.053 43.8195C317.499 45.0568 317.115 45.8888 316.901 46.3155C317.2 46.6142 317.349 47.2115 317.349 48.1075C317.349 49.0035 317.221 49.9635 316.965 50.9875C317.179 50.6888 317.733 49.8355 318.629 48.4275C319.525 47.0195 320.549 45.2915 321.701 43.2435C322.896 41.1955 323.963 39.0835 324.901 36.9075C325.328 35.8835 325.776 34.6675 326.245 33.2595C326.715 31.8515 327.12 30.4862 327.461 29.1635C327.803 27.7982 327.973 26.7102 327.973 25.8995ZM314.149 50.1555C314.192 49.8142 314.235 49.4942 314.277 49.1955C314.32 48.8968 314.341 48.6408 314.341 48.4275C314.341 47.9155 314.192 47.6382 313.893 47.5955C313.509 47.4675 313.147 47.4035 312.805 47.4035C311.611 47.4035 310.48 47.8942 309.413 48.8755C308.389 49.8568 307.451 50.9662 306.597 52.2035C306.427 52.4595 306.213 52.9288 305.957 53.6115C305.744 54.2942 305.637 54.9982 305.637 55.7235C305.637 56.2782 305.744 56.7902 305.957 57.2595C306.171 57.6862 306.533 58.0062 307.045 58.2195C307.131 58.2622 307.301 58.2835 307.557 58.2835C308.155 58.2835 308.88 58.0488 309.733 57.5795C310.587 57.1102 311.397 56.4915 312.165 55.7235C312.976 54.9128 313.552 54.0382 313.893 53.0995C314.064 52.6728 314.128 52.2035 314.085 51.6915C314.085 51.1795 314.107 50.6675 314.149 50.1555ZM374.358 33.1955C374.358 35.7128 373.91 37.9742 373.014 39.9795C372.161 41.9422 371.052 43.6702 369.686 45.1635C368.364 46.6568 366.977 47.9795 365.526 49.1315C363.82 50.4542 361.686 51.1155 359.126 51.1155C358.316 51.1155 357.74 51.0942 357.398 51.0515C357.057 50.9662 356.822 50.7955 356.694 50.5395C356.566 50.2835 356.396 49.8355 356.182 49.1955C356.14 49.0675 356.118 48.8755 356.118 48.6195C356.118 48.2782 356.182 48.0222 356.31 47.8515C356.481 47.6808 356.652 47.7662 356.822 48.1075C357.036 48.6622 357.292 49.0462 357.59 49.2595C357.889 49.4302 358.401 49.5155 359.126 49.5155C360.236 49.5155 361.132 49.3022 361.814 48.8755C362.54 48.4062 363.244 47.9155 363.926 47.4035C365.292 46.3795 366.572 45.2062 367.766 43.8835C369.004 42.5182 370.006 40.9395 370.774 39.1475C371.542 37.3555 371.926 35.3075 371.926 33.0035C371.926 31.3822 371.521 30.0168 370.71 28.9075C369.9 27.7982 368.812 26.9235 367.446 26.2835C366.081 25.6008 364.588 25.1102 362.966 24.8115C361.345 24.5128 359.724 24.3635 358.102 24.3635C357.42 24.3635 356.716 24.4062 355.99 24.4915C355.308 24.5768 354.646 24.6622 354.006 24.7475C351.83 24.9182 350.06 25.1528 348.694 25.4515C347.372 25.7502 346.241 26.2195 345.302 26.8595C344.364 27.4568 343.425 28.3315 342.486 29.4835C341.974 30.0808 341.654 30.9768 341.526 32.1715C341.398 33.3662 341.334 34.4542 341.334 35.4355C341.334 37.2702 341.526 38.6568 341.91 39.5955C342.294 40.5342 343.276 41.0035 344.854 41.0035C345.452 41.0035 346.198 40.8115 347.094 40.4275C347.99 40.0008 348.865 39.4888 349.718 38.8915C350.614 38.2515 351.276 37.5902 351.702 36.9075C352.001 36.4382 352.342 36.2035 352.726 36.2035C353.025 36.2035 353.174 36.4168 353.174 36.8435C353.174 37.1848 353.025 37.7182 352.726 38.4435C352.598 38.7422 352.214 39.1262 351.574 39.5955C350.977 40.0648 350.252 40.5342 349.398 41.0035C348.545 41.4302 347.692 41.7928 346.838 42.0915C346.028 42.3902 345.366 42.5395 344.854 42.5395C343.532 42.5395 342.358 42.1555 341.334 41.3875C340.31 40.6195 339.5 39.5955 338.902 38.3155C338.348 37.0355 338.07 35.6488 338.07 34.1555C338.07 32.8755 338.454 31.8088 339.222 30.9555C339.99 30.0595 340.652 29.2702 341.206 28.5875C342.785 26.7102 344.662 25.2168 346.838 24.1075C349.057 22.9982 351.916 22.3155 355.414 22.0595C356.14 21.9742 356.844 21.9102 357.526 21.8675C358.209 21.8248 358.892 21.8035 359.574 21.8035C362.092 21.8035 364.46 22.2515 366.678 23.1475C368.94 24.0008 370.774 25.2808 372.182 26.9875C373.633 28.6515 374.358 30.7208 374.358 33.1955ZM362.39 26.0915C362.433 26.0915 362.476 26.0915 362.518 26.0915C362.561 26.0488 362.604 26.0275 362.646 26.0275C362.86 26.0275 362.966 26.1342 362.966 26.3475C362.966 26.7742 362.668 27.0942 362.07 27.3075C360.662 27.6488 359.66 28.2248 359.062 29.0355C358.508 29.8035 357.996 30.8488 357.526 32.1715C356.886 34.0488 356.438 35.7982 356.182 37.4195C355.926 38.9982 355.756 40.6195 355.67 42.2835C355.585 43.9475 355.457 45.8462 355.286 47.9795C355.116 50.3688 354.732 52.7368 354.134 55.0835C353.58 57.4302 352.769 59.5635 351.702 61.4835C350.636 63.3608 349.27 64.8755 347.606 66.0275C345.942 67.1795 343.916 67.7555 341.526 67.7555C340.118 67.7555 338.796 67.2435 337.558 66.2195C336.321 65.1955 335.318 63.8942 334.55 62.3155C333.825 60.7795 333.462 59.2648 333.462 57.7715C333.462 56.5342 333.718 55.4888 334.23 54.6355C334.742 53.7395 335.169 52.8862 335.51 52.0755C336.236 50.9235 337.046 49.8142 337.942 48.7475C338.881 47.6382 339.969 46.7422 341.206 46.0595C342.444 45.3342 343.873 44.9715 345.494 44.9715C347.5 44.9715 348.844 45.5048 349.526 46.5715C350.209 47.6382 350.55 49.1102 350.55 50.9875C350.55 53.2062 349.932 54.9128 348.694 56.1075C347.457 57.3022 345.708 57.8995 343.446 57.8995C342.764 57.8995 342.188 57.6862 341.718 57.2595C341.249 56.7902 341.014 56.1928 341.014 55.4675C341.014 54.8702 341.164 54.4648 341.462 54.2515C341.804 54.0382 342.145 53.8462 342.486 53.6755C342.572 53.6328 342.678 53.6115 342.806 53.6115C343.02 53.6115 343.212 53.7182 343.382 53.9315C343.553 54.1022 343.638 54.2942 343.638 54.5075C343.638 54.8062 343.489 54.9768 343.19 55.0195C343.062 55.0622 342.913 55.1048 342.742 55.1475C342.572 55.1475 342.486 55.2542 342.486 55.4675C342.486 56.0648 342.806 56.3635 343.446 56.3635C347.158 56.3635 349.014 54.5715 349.014 50.9875C349.014 49.6648 348.801 48.5982 348.374 47.7875C347.948 46.9342 346.988 46.5075 345.494 46.5075C344.086 46.5075 342.849 46.8275 341.782 47.4675C340.716 48.1075 339.798 48.9182 339.03 49.8995C338.262 50.8808 337.58 51.8835 336.982 52.9075C336.556 53.5902 336.129 54.2942 335.702 55.0195C335.276 55.7448 335.062 56.6622 335.062 57.7715C335.062 59.0088 335.254 60.2888 335.638 61.6115C336.065 62.8915 336.684 63.9795 337.494 64.8755C338.305 65.7715 339.265 66.2195 340.374 66.2195C342.593 66.2195 344.428 65.7075 345.878 64.6835C347.372 63.6595 348.545 62.2942 349.398 60.5875C350.252 58.8808 350.892 56.9608 351.318 54.8275C351.788 52.6515 352.108 50.4542 352.278 48.2355C352.534 45.0355 352.94 42.1768 353.494 39.6595C354.092 37.1422 354.881 34.4542 355.862 31.5955C356.417 29.9742 357.206 28.7582 358.23 27.9475C359.297 27.1368 360.684 26.5182 362.39 26.0915ZM385.441 50.1555C385.441 51.0515 385.249 52.2248 384.865 53.6755C384.481 55.1262 383.969 56.4915 383.329 57.7715C382.732 59.0942 382.049 60.0755 381.281 60.7155C380.556 61.3128 379.852 61.7395 379.169 61.9955C378.487 62.2088 377.932 62.4222 377.505 62.6355C377.335 62.6782 377.143 62.7208 376.929 62.7635C376.759 62.8488 376.567 62.8915 376.353 62.8915C375.5 62.8915 374.839 62.6568 374.369 62.1875C374.199 62.0168 373.921 61.8462 373.537 61.6755C373.196 61.5048 372.876 61.2062 372.577 60.7795C372.279 60.3528 372.129 59.6488 372.129 58.6675C372.129 57.6435 372.257 56.6622 372.513 55.7235C371.745 54.8275 371.361 53.8462 371.361 52.7795C371.361 52.1395 371.511 51.5208 371.809 50.9235C372.62 49.3875 373.644 48.1928 374.881 47.3395C376.119 46.4862 377.292 45.8888 378.401 45.5475C379.553 45.2062 380.343 45.0355 380.769 45.0355C382.348 45.0355 383.521 45.5475 384.289 46.5715C385.057 47.5955 385.441 48.7902 385.441 50.1555ZM382.817 50.4755C382.817 49.4942 382.476 48.6835 381.793 48.0435C381.153 47.4035 380.343 47.0835 379.361 47.0835C378.551 47.0835 377.719 47.3395 376.865 47.8515C376.055 48.3208 375.351 48.9182 374.753 49.6435C374.156 50.3688 373.772 51.0728 373.601 51.7555C373.559 52.0115 373.516 52.2462 373.473 52.4595C373.473 52.6728 373.473 52.8862 373.473 53.0995C373.943 52.0755 374.433 51.2222 374.945 50.5395C375.5 49.8568 375.905 49.4302 376.161 49.2595C376.375 49.0888 376.652 49.0035 376.993 49.0035C377.463 49.0035 377.697 49.1315 377.697 49.3875C377.697 49.5582 377.463 49.8782 376.993 50.3475C376.567 50.7742 376.076 51.3502 375.521 52.0755C374.967 52.7582 374.497 53.6115 374.113 54.6355C374.455 55.0622 374.903 55.3822 375.457 55.5955C376.055 55.7662 376.631 55.8515 377.185 55.8515C377.783 55.8515 378.337 55.7448 378.849 55.5315C379.404 55.2755 379.767 54.9342 379.937 54.5075C379.98 54.3795 380.001 54.2728 380.001 54.1875C380.044 54.0595 380.065 53.9528 380.065 53.8675C380.065 53.4408 379.873 53.1848 379.489 53.0995C379.148 52.9715 378.807 52.9288 378.465 52.9715H378.337C377.868 52.9715 377.633 52.8648 377.633 52.6515C377.633 52.5235 377.676 52.3955 377.761 52.2675C377.889 52.1395 377.996 52.0328 378.081 51.9475C378.337 51.6915 378.615 51.5635 378.913 51.5635C379.34 51.5635 379.809 51.8408 380.321 52.3955C380.791 53.0355 381.025 53.6542 381.025 54.2515C381.025 55.0195 380.641 55.6168 379.873 56.0435C379.148 56.4702 378.337 56.7688 377.441 56.9395C376.545 57.1102 375.863 57.1955 375.393 57.1955C374.711 57.1955 374.156 57.0462 373.729 56.7475C373.687 56.8328 373.665 57.0248 373.665 57.3235C373.665 58.5182 373.985 59.3288 374.625 59.7555C375.265 60.1395 375.799 60.4382 376.225 60.6515C376.481 60.7368 376.695 60.7795 376.865 60.7795C377.463 60.7795 378.081 60.5235 378.721 60.0115C379.404 59.4995 380.001 58.7955 380.513 57.8995C380.897 57.2168 381.26 56.4062 381.601 55.4675C381.943 54.5288 382.22 53.6115 382.433 52.7155C382.689 51.7768 382.817 51.0302 382.817 50.4755ZM405.933 58.1555C404.824 59.4782 403.864 60.3955 403.053 60.9075C402.243 61.4195 401.539 61.6755 400.941 61.6755C400.173 61.6755 399.512 61.3768 398.957 60.7795C398.445 60.1395 397.997 59.4568 397.613 58.7315C397.272 58.0062 396.995 57.4942 396.781 57.1955C395.971 57.9208 395.011 58.6888 393.901 59.4995C392.792 60.2675 391.875 60.6515 391.149 60.6515C389.784 60.6515 388.717 60.3102 387.949 59.6275C387.181 58.9022 386.797 57.8568 386.797 56.4915C386.797 55.0835 386.968 53.4195 387.309 51.4995C387.693 49.5795 388.163 47.6808 388.717 45.8035C389.272 43.8835 389.805 42.2835 390.317 41.0035C390.445 40.6195 390.701 40.2995 391.085 40.0435C391.512 39.7875 391.939 39.6595 392.365 39.6595C392.877 39.6595 393.219 39.7875 393.389 40.0435C393.56 40.2995 393.645 40.5982 393.645 40.9395C393.645 41.3662 393.56 41.7928 393.389 42.2195C393.261 42.6035 393.197 42.7955 393.197 42.7955C392.685 44.2462 392.088 45.7608 391.405 47.3395C390.765 48.9182 390.168 50.7102 389.613 52.7155C389.571 52.9715 389.507 53.3342 389.421 53.8035C389.379 54.2728 389.357 54.7635 389.357 55.2755C389.357 56.0008 389.443 56.6835 389.613 57.3235C389.827 57.9208 390.211 58.2195 390.765 58.2195C391.235 58.2195 391.853 57.9422 392.621 57.3875C393.432 56.8328 394.243 56.0648 395.053 55.0835C395.864 54.1022 396.504 52.9715 396.973 51.6915C397.4 50.5395 397.784 49.2808 398.125 47.9155C398.467 46.5502 398.765 45.2702 399.021 44.0755C399.32 42.8382 399.597 41.8782 399.853 41.1955C399.981 40.8968 400.173 40.7475 400.429 40.7475C400.771 40.7475 401.069 40.8755 401.325 41.1315C401.624 41.3875 401.731 41.6222 401.645 41.8355C401.475 42.2622 401.24 42.9662 400.941 43.9475C400.643 44.9288 400.344 46.0168 400.045 47.2115C399.747 48.4062 399.469 49.5795 399.213 50.7315C398.957 51.8408 398.744 52.7795 398.573 53.5475C398.403 54.3155 398.317 54.7422 398.317 54.8275C398.317 55.4675 398.381 56.0435 398.509 56.5555C398.637 57.0675 398.851 57.6222 399.149 58.2195C399.363 58.5608 399.619 58.9448 399.917 59.3715C400.259 59.7555 400.6 59.9475 400.941 59.9475C401.752 59.9475 402.52 59.6702 403.245 59.1155C404.013 58.5182 404.589 57.9422 404.973 57.3875C405.272 56.9182 405.549 56.6835 405.805 56.6835C406.061 56.6835 406.189 56.9182 406.189 57.3875C406.189 57.7288 406.104 57.9848 405.933 58.1555ZM419.636 58.7315C419.807 58.5608 420.042 58.4755 420.34 58.4755C420.639 58.4755 420.788 58.6035 420.788 58.8595C420.788 59.1582 420.447 59.6275 419.764 60.2675C419.082 60.9075 418.335 61.4195 417.524 61.8035C416.714 62.1875 415.946 62.4648 415.22 62.6355C414.879 62.6782 414.41 62.5502 413.812 62.2515C413.258 61.9955 412.916 61.7182 412.788 61.4195C412.618 61.0355 412.49 60.6088 412.404 60.1395C412.319 59.6275 412.276 59.0942 412.276 58.5395C412.276 57.2168 412.426 55.8515 412.724 54.4435C413.023 53.0355 413.3 51.8195 413.556 50.7955C413.044 50.9662 412.468 51.0515 411.828 51.0515C411.231 51.0515 410.698 51.0942 410.228 51.1795C409.93 51.6062 409.674 52.0968 409.46 52.6515C409.247 53.1635 408.948 53.7395 408.564 54.3795C407.882 55.4888 407.114 56.5982 406.26 57.7075C405.45 58.7742 404.618 59.6488 403.764 60.3315C402.911 61.0142 402.079 61.3555 401.268 61.3555C400.714 61.3555 400.436 61.2062 400.436 60.9075C400.436 60.6088 400.799 60.3315 401.524 60.0755C402.548 59.6915 403.594 58.8808 404.66 57.6435C405.727 56.4062 406.687 55.1262 407.54 53.8035C407.967 53.1635 408.244 52.5875 408.372 52.0755C408.5 51.5208 408.564 51.0942 408.564 50.7955C408.564 50.7955 408.372 50.5822 407.988 50.1555C407.647 49.6862 407.476 49.2382 407.476 48.8115C407.476 47.8728 407.775 47.0195 408.372 46.2515C409.012 45.4835 409.674 45.2062 410.356 45.4195C410.826 45.5475 411.124 45.7608 411.252 46.0595C411.423 46.3582 411.508 46.6782 411.508 47.0195C411.508 47.4035 411.444 47.8088 411.316 48.2355C411.188 48.6195 411.06 48.9608 410.932 49.2595C411.06 49.4302 411.338 49.5155 411.764 49.5155C412.404 49.5155 413.108 49.3875 413.876 49.1315C414.431 48.3208 414.964 47.6808 415.476 47.2115C415.988 46.7422 416.458 46.5502 416.884 46.6355C417.183 46.6782 417.46 46.7848 417.716 46.9555C417.972 47.1262 418.1 47.4462 418.1 47.9155C418.1 48.2995 417.908 48.8755 417.524 49.6435C416.884 50.7955 416.287 52.0542 415.732 53.4195C415.178 54.7422 414.751 55.9582 414.452 57.0675C414.154 58.1342 414.026 58.8808 414.068 59.3075C414.154 59.8622 414.303 60.2248 414.516 60.3955C414.772 60.5662 415.05 60.6515 415.348 60.6515C415.562 60.6515 415.775 60.6302 415.988 60.5875C416.244 60.5022 416.479 60.4382 416.692 60.3955C417.332 60.1822 417.866 59.9475 418.292 59.6915C418.719 59.4355 419.167 59.1155 419.636 58.7315ZM410.1 47.9155C410.1 47.5315 409.972 47.2542 409.716 47.0835C409.674 47.0408 409.61 47.0195 409.524 47.0195C409.311 47.0195 409.119 47.1688 408.948 47.4675C408.778 47.7235 408.692 47.9795 408.692 48.2355C408.692 48.4488 408.714 48.7048 408.756 49.0035C408.842 49.2595 408.991 49.3235 409.204 49.1955C409.418 49.0675 409.61 48.8968 409.78 48.6835C409.994 48.4702 410.1 48.2142 410.1 47.9155ZM435.699 58.7315C435.87 58.5608 436.104 58.4755 436.403 58.4755C436.702 58.4755 436.851 58.6035 436.851 58.8595C436.851 59.1582 436.51 59.6275 435.827 60.2675C435.144 60.9075 434.398 61.4195 433.587 61.8035C432.776 62.1875 432.008 62.4648 431.283 62.6355C430.942 62.6782 430.472 62.5502 429.875 62.2515C429.32 61.9955 428.979 61.7182 428.851 61.4195C428.68 61.0355 428.552 60.6088 428.467 60.1395C428.382 59.6275 428.339 59.0942 428.339 58.5395C428.339 57.2168 428.488 55.8515 428.787 54.4435C429.086 53.0355 429.363 51.8195 429.619 50.7955C429.107 50.9662 428.531 51.0515 427.891 51.0515C427.294 51.0515 426.76 51.0942 426.291 51.1795C425.992 51.6062 425.736 52.0968 425.523 52.6515C425.31 53.1635 425.011 53.7395 424.627 54.3795C423.944 55.4888 423.176 56.5982 422.323 57.7075C421.512 58.7742 420.68 59.6488 419.827 60.3315C418.974 61.0142 418.142 61.3555 417.331 61.3555C416.776 61.3555 416.499 61.2062 416.499 60.9075C416.499 60.6088 416.862 60.3315 417.587 60.0755C418.611 59.6915 419.656 58.8808 420.723 57.6435C421.79 56.4062 422.75 55.1262 423.603 53.8035C424.03 53.1635 424.307 52.5875 424.435 52.0755C424.563 51.5208 424.627 51.0942 424.627 50.7955C424.627 50.7955 424.435 50.5822 424.051 50.1555C423.71 49.6862 423.539 49.2382 423.539 48.8115C423.539 47.8728 423.838 47.0195 424.435 46.2515C425.075 45.4835 425.736 45.2062 426.419 45.4195C426.888 45.5475 427.187 45.7608 427.315 46.0595C427.486 46.3582 427.571 46.6782 427.571 47.0195C427.571 47.4035 427.507 47.8088 427.379 48.2355C427.251 48.6195 427.123 48.9608 426.995 49.2595C427.123 49.4302 427.4 49.5155 427.827 49.5155C428.467 49.5155 429.171 49.3875 429.939 49.1315C430.494 48.3208 431.027 47.6808 431.539 47.2115C432.051 46.7422 432.52 46.5502 432.947 46.6355C433.246 46.6782 433.523 46.7848 433.779 46.9555C434.035 47.1262 434.163 47.4462 434.163 47.9155C434.163 48.2995 433.971 48.8755 433.587 49.6435C432.947 50.7955 432.35 52.0542 431.795 53.4195C431.24 54.7422 430.814 55.9582 430.515 57.0675C430.216 58.1342 430.088 58.8808 430.131 59.3075C430.216 59.8622 430.366 60.2248 430.579 60.3955C430.835 60.5662 431.112 60.6515 431.411 60.6515C431.624 60.6515 431.838 60.6302 432.051 60.5875C432.307 60.5022 432.542 60.4382 432.755 60.3955C433.395 60.1822 433.928 59.9475 434.355 59.6915C434.782 59.4355 435.23 59.1155 435.699 58.7315ZM426.163 47.9155C426.163 47.5315 426.035 47.2542 425.779 47.0835C425.736 47.0408 425.672 47.0195 425.587 47.0195C425.374 47.0195 425.182 47.1688 425.011 47.4675C424.84 47.7235 424.755 47.9795 424.755 48.2355C424.755 48.4488 424.776 48.7048 424.819 49.0035C424.904 49.2595 425.054 49.3235 425.267 49.1955C425.48 49.0675 425.672 48.8968 425.843 48.6835C426.056 48.4702 426.163 48.2142 426.163 47.9155ZM458.673 57.1955C458.801 57.0675 458.972 57.0035 459.185 57.0035C459.484 57.0035 459.633 57.1528 459.633 57.4515C459.633 57.6222 459.527 57.8782 459.313 58.2195C459.143 58.5608 458.759 58.9662 458.161 59.4355C457.564 59.9475 456.945 60.4168 456.305 60.8435C455.708 61.2702 454.876 61.4835 453.809 61.4835C452.657 61.4835 451.74 61.2702 451.057 60.8435C450.417 60.4168 449.948 59.9475 449.649 59.4355C449.393 58.8808 449.223 58.4542 449.137 58.1555C448.625 58.5395 448.092 59.0515 447.537 59.6915C447.025 60.2888 446.279 60.8435 445.297 61.3555C444.316 61.8248 442.908 62.0595 441.073 62.0595C440.049 62.0595 439.111 61.8248 438.257 61.3555C437.447 60.8435 437.041 59.7555 437.041 58.0915C437.041 57.6222 437.063 57.1315 437.105 56.6195C437.191 56.0648 437.319 55.4675 437.489 54.8275C438.001 52.8222 438.599 51.2435 439.281 50.0915C439.964 48.9395 440.988 48.0862 442.353 47.5315C443.207 47.1902 444.252 46.8702 445.489 46.5715C446.727 46.2728 447.815 46.0168 448.753 45.8035C449.052 45.7182 449.308 45.4408 449.521 44.9715C449.777 44.4595 450.055 43.9902 450.353 43.5635C450.524 43.3502 450.716 43.1795 450.929 43.0515C451.143 42.8808 451.377 42.7955 451.633 42.7955C451.847 42.7955 452.124 42.9022 452.465 43.1155C452.764 43.3288 452.956 43.7342 453.041 44.3315C453.169 44.9288 453.233 45.4835 453.233 45.9955C453.191 46.2515 453.084 46.5715 452.913 46.9555C452.785 47.2968 452.679 47.6808 452.593 48.1075C452.508 48.6622 452.295 49.4515 451.953 50.4755C451.612 51.4995 451.441 52.3528 451.441 53.0355C451.441 53.6328 451.399 54.3795 451.313 55.2755C451.228 56.1288 451.228 56.7262 451.313 57.0675C451.783 58.0915 452.444 58.7742 453.297 59.1155C454.151 59.4142 454.897 59.4995 455.537 59.3715C456.007 59.2862 456.54 59.0088 457.137 58.5395C457.735 58.0702 458.247 57.6222 458.673 57.1955ZM448.305 49.8995C448.22 49.5582 448.007 49.1955 447.665 48.8115C447.367 48.4275 446.983 48.2355 446.513 48.2355C446.428 48.2355 446.257 48.2782 446.001 48.3635C445.276 48.6195 444.508 49.1102 443.697 49.8355C442.887 50.5182 442.183 51.4142 441.585 52.5235C440.988 53.6328 440.647 54.9342 440.561 56.4275C440.561 56.8542 440.689 57.4088 440.945 58.0915C441.244 58.7742 441.628 59.3502 442.097 59.8195C442.567 60.2888 443.036 60.4168 443.505 60.2035C444.529 59.7768 445.383 59.1795 446.065 58.4115C446.791 57.6008 447.388 56.6195 447.857 55.4675C448.071 54.9128 448.22 54.3368 448.305 53.7395C448.433 53.0995 448.497 52.5022 448.497 51.9475C448.497 51.4355 448.476 51.0088 448.433 50.6675C448.391 50.2835 448.348 50.0275 448.305 49.8995ZM467.055 41.4515C466.799 41.7075 466.479 41.8355 466.095 41.8355C465.796 41.8355 465.476 41.7715 465.135 41.6435C464.794 41.5155 464.452 41.3662 464.111 41.1955C463.471 40.8542 463.151 40.2355 463.151 39.3395C463.151 38.3155 463.62 37.3342 464.559 36.3955C464.9 36.0542 465.284 35.8835 465.711 35.8835C466.18 35.8835 466.628 36.0542 467.055 36.3955C467.268 36.5662 467.418 36.8862 467.503 37.3555C467.588 37.8248 467.631 38.3155 467.631 38.8275C467.631 39.3822 467.588 39.9155 467.503 40.4275C467.418 40.8968 467.268 41.2382 467.055 41.4515ZM467.183 47.9795C466.756 49.3022 466.394 50.3902 466.095 51.2435C465.839 52.0968 465.583 53.1208 465.327 54.3155C464.602 57.7288 463.876 60.6302 463.151 63.0195C462.468 65.4515 461.636 67.5848 460.655 69.4195C459.674 71.2542 458.394 73.0248 456.815 74.7315C456.303 75.0302 455.599 75.4355 454.703 75.9475C453.807 76.4595 452.868 76.9075 451.887 77.2915C450.906 77.7182 450.031 77.9315 449.263 77.9315C448.794 77.9315 448.388 77.8035 448.047 77.5475C447.535 77.1635 447.194 76.7155 447.023 76.2035C446.81 75.6915 446.703 75.1582 446.703 74.6035C446.703 73.8355 446.831 73.0462 447.087 72.2355C447.343 71.4675 447.556 70.7635 447.727 70.1235C447.94 69.4408 448.175 68.9715 448.431 68.7155C448.644 68.4595 448.836 68.3315 449.007 68.3315C449.263 68.3315 449.455 68.4808 449.583 68.7795C449.583 69.0782 449.476 69.4408 449.263 69.8675C449.05 70.3368 448.879 70.9982 448.751 71.8515C448.751 71.9368 448.751 72.0222 448.751 72.1075C448.708 72.2355 448.687 72.3635 448.687 72.4915C448.687 73.0462 448.815 73.6435 449.071 74.2835C449.327 74.9235 449.668 75.4142 450.095 75.7555C450.266 75.8408 450.436 75.8835 450.607 75.8835C451.119 75.8835 451.716 75.6915 452.399 75.3075C453.039 74.9662 453.636 74.5608 454.191 74.0915C454.746 73.6648 455.087 73.3448 455.215 73.1315C455.898 72.2782 456.751 70.9128 457.775 69.0355C458.756 67.1582 459.674 64.9395 460.527 62.3795C461.423 59.8195 461.999 57.1102 462.255 54.2515C462.383 52.5875 462.575 51.2862 462.831 50.3475C463.087 49.3662 463.556 48.2782 464.239 47.0835C464.623 46.4008 465.092 46.0595 465.647 46.0595C466.159 46.0595 466.586 46.2942 466.927 46.7635C467.268 47.2328 467.354 47.6382 467.183 47.9795ZM490.048 57.1955C490.176 57.0675 490.347 57.0035 490.56 57.0035C490.859 57.0035 491.008 57.1528 491.008 57.4515C491.008 57.6222 490.902 57.8782 490.688 58.2195C490.518 58.5608 490.134 58.9662 489.536 59.4355C488.939 59.9475 488.32 60.4168 487.68 60.8435C487.083 61.2702 486.251 61.4835 485.184 61.4835C484.032 61.4835 483.115 61.2702 482.432 60.8435C481.792 60.4168 481.323 59.9475 481.024 59.4355C480.768 58.8808 480.598 58.4542 480.512 58.1555C480 58.5395 479.467 59.0515 478.912 59.6915C478.4 60.2888 477.654 60.8435 476.672 61.3555C475.691 61.8248 474.283 62.0595 472.448 62.0595C471.424 62.0595 470.486 61.8248 469.632 61.3555C468.822 60.8435 468.416 59.7555 468.416 58.0915C468.416 57.6222 468.438 57.1315 468.48 56.6195C468.566 56.0648 468.694 55.4675 468.864 54.8275C469.376 52.8222 469.974 51.2435 470.656 50.0915C471.339 48.9395 472.363 48.0862 473.728 47.5315C474.582 47.1902 475.627 46.8702 476.864 46.5715C478.102 46.2728 479.19 46.0168 480.128 45.8035C480.427 45.7182 480.683 45.4408 480.896 44.9715C481.152 44.4595 481.43 43.9902 481.728 43.5635C481.899 43.3502 482.091 43.1795 482.304 43.0515C482.518 42.8808 482.752 42.7955 483.008 42.7955C483.222 42.7955 483.499 42.9022 483.84 43.1155C484.139 43.3288 484.331 43.7342 484.416 44.3315C484.544 44.9288 484.608 45.4835 484.608 45.9955C484.566 46.2515 484.459 46.5715 484.288 46.9555C484.16 47.2968 484.054 47.6808 483.968 48.1075C483.883 48.6622 483.67 49.4515 483.328 50.4755C482.987 51.4995 482.816 52.3528 482.816 53.0355C482.816 53.6328 482.774 54.3795 482.688 55.2755C482.603 56.1288 482.603 56.7262 482.688 57.0675C483.158 58.0915 483.819 58.7742 484.672 59.1155C485.526 59.4142 486.272 59.4995 486.912 59.3715C487.382 59.2862 487.915 59.0088 488.512 58.5395C489.11 58.0702 489.622 57.6222 490.048 57.1955ZM479.68 49.8995C479.595 49.5582 479.382 49.1955 479.04 48.8115C478.742 48.4275 478.358 48.2355 477.888 48.2355C477.803 48.2355 477.632 48.2782 477.376 48.3635C476.651 48.6195 475.883 49.1102 475.072 49.8355C474.262 50.5182 473.558 51.4142 472.96 52.5235C472.363 53.6328 472.022 54.9342 471.936 56.4275C471.936 56.8542 472.064 57.4088 472.32 58.0915C472.619 58.7742 473.003 59.3502 473.472 59.8195C473.942 60.2888 474.411 60.4168 474.88 60.2035C475.904 59.7768 476.758 59.1795 477.44 58.4115C478.166 57.6008 478.763 56.6195 479.232 55.4675C479.446 54.9128 479.595 54.3368 479.68 53.7395C479.808 53.0995 479.872 52.5022 479.872 51.9475C479.872 51.4355 479.851 51.0088 479.808 50.6675C479.766 50.2835 479.723 50.0275 479.68 49.8995ZM505.15 53.2275C504.425 53.8675 503.806 54.3582 503.294 54.6995C502.825 54.9982 502.121 55.2328 501.182 55.4035C500.798 56.3848 500.286 57.5155 499.646 58.7955C499.049 60.0328 498.387 61.0995 497.662 61.9955C496.979 62.8915 496.254 63.3395 495.486 63.3395C494.035 63.3395 492.947 63.0195 492.222 62.3795C491.539 61.7822 491.091 60.9288 490.878 59.8195C490.707 58.6675 490.622 57.3662 490.622 55.9155C490.622 54.4222 490.75 52.5875 491.006 50.4115C491.262 48.2355 491.646 45.8888 492.158 43.3715C492.713 40.8542 493.395 38.3155 494.206 35.7555C494.974 33.3235 495.806 30.9555 496.702 28.6515C497.598 26.3475 498.899 24.3422 500.606 22.6355C500.947 22.1662 501.353 21.9315 501.822 21.9315C502.249 21.9315 502.611 22.1022 502.91 22.4435C503.209 22.7422 503.337 23.1048 503.294 23.5315C503.294 23.5315 503.273 24.0648 503.23 25.1315C503.23 26.1982 503.166 27.4995 503.038 29.0355C502.91 30.5288 502.718 31.9582 502.462 33.3235C502.035 35.6702 501.31 38.1235 500.286 40.6835C499.262 43.2435 498.238 45.5475 497.214 47.5955C496.702 48.6195 496.105 49.6648 495.422 50.7315C494.782 51.7555 494.227 52.6302 493.758 53.3555C493.289 54.0808 493.054 54.5075 493.054 54.6355C493.011 54.8488 492.969 55.0835 492.926 55.3395C492.926 55.5955 492.926 55.8515 492.926 56.1075C492.926 57.3022 493.139 58.4755 493.566 59.6275C494.035 60.7795 494.633 61.3555 495.358 61.3555C495.827 61.3555 496.318 61.0355 496.83 60.3955C497.385 59.7128 497.918 58.9235 498.43 58.0275C498.942 57.0888 499.369 56.2355 499.71 55.4675C498.558 54.8702 497.982 53.9102 497.982 52.5875C497.982 52.2035 498.046 51.8195 498.174 51.4355C498.473 50.4115 498.878 49.6648 499.39 49.1955C499.902 48.7262 500.414 48.4915 500.926 48.4915C501.395 48.4915 501.801 48.6835 502.142 49.0675C502.483 49.4088 502.654 49.8782 502.654 50.4755C502.654 50.9448 502.569 51.3715 502.398 51.7555C502.355 51.9688 502.313 52.1608 502.27 52.3315C502.27 52.4595 502.163 52.7582 501.95 53.2275C502.675 53.0142 503.315 52.6942 503.87 52.2675C504.425 51.7982 504.809 51.5422 505.022 51.4995C505.15 51.4568 505.321 51.4355 505.534 51.4355C505.918 51.4355 506.11 51.5635 506.11 51.8195C506.11 52.1608 505.79 52.6302 505.15 53.2275ZM501.182 26.2195C500.798 26.1342 500.158 27.0942 499.262 29.0995C498.366 31.0622 497.427 33.7075 496.446 37.0355C496.147 38.0595 495.806 39.3608 495.422 40.9395C495.038 42.5182 494.675 44.1608 494.334 45.8675C493.993 47.5315 493.715 49.0462 493.502 50.4115C494.867 47.6382 496.105 45.1422 497.214 42.9235C498.366 40.7048 499.241 38.6355 499.838 36.7155C500.307 35.1795 500.691 33.5368 500.99 31.7875C501.331 30.0382 501.502 28.6515 501.502 27.6275C501.502 26.7742 501.395 26.3048 501.182 26.2195ZM519.426 36.3315C519.128 36.3315 518.829 36.2888 518.53 36.2035C518.274 36.0755 518.018 35.9262 517.762 35.7555C517.208 35.4995 516.93 34.9448 516.93 34.0915C516.93 33.7075 517.016 33.2808 517.186 32.8115C517.4 32.3422 517.72 31.8942 518.146 31.4675C518.445 31.1688 518.808 31.0195 519.234 31.0195C519.618 31.0195 519.981 31.1688 520.322 31.4675C520.493 31.6382 520.6 31.9155 520.642 32.2995C520.728 32.6408 520.77 33.0248 520.77 33.4515C520.77 33.9635 520.728 34.4755 520.642 34.9875C520.557 35.4568 520.408 35.7982 520.194 36.0115C519.896 36.2248 519.64 36.3315 519.426 36.3315ZM512.898 61.4835C511.32 61.4835 510.232 61.1208 509.634 60.3955C509.037 59.6702 508.738 58.7955 508.738 57.7715C508.738 57.3022 508.781 56.8328 508.866 56.3635C508.952 55.8942 509.058 55.4248 509.186 54.9555C508.76 55.7235 508.098 56.6195 507.202 57.6435C506.306 58.6248 505.474 59.4142 504.706 60.0115C504.536 60.1395 504.365 60.2035 504.194 60.2035C503.938 60.2035 503.81 60.0542 503.81 59.7555C503.81 59.4142 503.938 59.1155 504.194 58.8595C505.986 56.9822 507.352 55.4675 508.29 54.3155C509.229 53.1208 509.954 52.1182 510.466 51.3075C510.978 50.4968 511.469 49.7502 511.938 49.0675C512.322 47.8302 512.664 46.6355 512.962 45.4835C513.304 44.2888 513.816 43.0728 514.498 41.8355C514.712 41.4515 515.138 41.2595 515.778 41.2595C516.205 41.2595 516.589 41.3662 516.93 41.5795C517.272 41.7928 517.442 42.1555 517.442 42.6675C517.442 42.9235 517.378 43.2222 517.25 43.5635C516.781 44.8862 516.269 46.0168 515.714 46.9555C515.202 47.8515 514.52 49.0035 513.666 50.4115C512.77 51.8622 512.045 53.2702 511.49 54.6355C510.978 56.0008 510.722 57.1528 510.722 58.0915C510.722 58.6888 510.85 59.1795 511.106 59.5635C511.405 59.9475 511.832 60.1395 512.386 60.1395C513.581 60.1822 514.498 59.9902 515.138 59.5635C515.778 59.0942 516.312 58.6462 516.738 58.2195C517.293 57.6222 517.762 57.0675 518.146 56.5555C518.573 56.0435 518.957 55.5955 519.298 55.2115C519.554 54.9555 519.682 54.9982 519.682 55.3395C519.682 55.5528 519.618 55.8302 519.49 56.1715C519.405 56.5128 519.298 56.7688 519.17 56.9395C518.744 57.5368 518.232 58.1982 517.634 58.9235C517.08 59.6488 516.418 60.2675 515.65 60.7795C514.882 61.2488 513.965 61.4835 512.898 61.4835Z" fill="#DBDE49" fill-opacity="0.7"/>
<path d="M306.454 112L304.366 92.8H304.878L306.894 111.592H310.734L311.43 103.272L312.006 94.592H313.486L314.134 103.256L314.806 111.592H318.654L320.63 92.8H321.142L319.102 112H314.374L313.646 103.248L313.054 94.976H312.446L311.918 103.2L311.174 112H306.454ZM307.294 111.168L306.438 103.232L305.374 92.8H305.878L306.91 102.984L307.694 110.76H309.854L310.502 102.824L311.19 93.808H314.31L315.054 102.752L315.694 110.76H317.862L318.646 102.936L319.63 92.8H320.134L319.126 103.144L318.262 111.168H315.27L314.59 102.976L313.87 94.192H311.63L310.966 103.048L310.278 111.168H307.294ZM308.054 110.344L307.358 102.704L306.374 92.8H306.886L307.814 102.352L308.494 109.928H309.046L309.582 102.352L310.366 93.024H315.134L315.958 102.176L316.502 109.928H317.062L317.766 102.176L318.622 92.8H319.134L318.206 102.608L317.502 110.344H316.086L315.51 102.48L314.686 93.408H310.814L310.038 102.584L309.462 110.344H308.054ZM328.016 112.24C326.432 112.24 325.248 111.931 324.464 111.312C323.68 110.693 323.256 109.624 323.192 108.104C323.16 107.155 323.136 106.189 323.12 105.208C323.104 104.221 323.096 103.237 323.096 102.256C323.096 101.275 323.104 100.317 323.12 99.384C323.141 98.4507 323.165 97.568 323.192 96.736C323.267 95.2 323.691 94.12 324.464 93.496C325.243 92.872 326.419 92.56 327.992 92.56C329.581 92.56 330.741 92.8773 331.472 93.512C332.203 94.1413 332.603 95.2 332.672 96.688C332.683 96.848 332.691 97.168 332.696 97.648C332.701 98.1227 332.704 98.688 332.704 99.344C332.709 99.9947 332.707 100.664 332.696 101.352C332.685 102.04 332.664 102.672 332.632 103.248H325.64C325.645 103.813 325.651 104.355 325.656 104.872C325.661 105.389 325.669 105.899 325.68 106.4C325.691 106.901 325.704 107.416 325.72 107.944C325.752 108.749 325.944 109.328 326.296 109.68C326.653 110.032 327.227 110.208 328.016 110.208C328.688 110.208 329.197 110.045 329.544 109.72C329.896 109.389 330.093 108.805 330.136 107.968C330.157 107.589 330.165 107.147 330.16 106.64C330.155 106.133 330.139 105.683 330.112 105.288H330.624C330.651 105.747 330.664 106.232 330.664 106.744C330.664 107.251 330.656 107.664 330.64 107.984C330.592 108.923 330.363 109.597 329.952 110.008C329.547 110.413 328.901 110.616 328.016 110.616C327.051 110.616 326.352 110.408 325.92 109.992C325.488 109.576 325.253 108.899 325.216 107.96C325.195 107.379 325.176 106.795 325.16 106.208C325.149 105.621 325.141 105.043 325.136 104.472C325.131 103.901 325.125 103.355 325.12 102.832H332.144C332.165 102.256 332.179 101.648 332.184 101.008C332.195 100.368 332.197 99.752 332.192 99.16C332.192 98.568 332.189 98.0533 332.184 97.616C332.179 97.1733 332.171 96.872 332.16 96.712C332.101 95.368 331.749 94.408 331.104 93.832C330.459 93.256 329.421 92.968 327.992 92.968C326.584 92.968 325.531 93.2533 324.832 93.824C324.133 94.3947 323.755 95.3893 323.696 96.808C323.664 97.544 323.64 98.3733 323.624 99.296C323.608 100.213 323.6 101.173 323.6 102.176C323.6 103.179 323.608 104.179 323.624 105.176C323.64 106.173 323.664 107.117 323.696 108.008C323.749 109.363 324.107 110.339 324.768 110.936C325.429 111.533 326.512 111.832 328.016 111.832C329.413 111.832 330.437 111.541 331.088 110.96C331.739 110.379 332.096 109.405 332.16 108.04C332.171 107.816 332.176 107.541 332.176 107.216C332.181 106.891 332.181 106.557 332.176 106.216C332.171 105.869 332.157 105.56 332.136 105.288H332.64C332.672 105.699 332.688 106.179 332.688 106.728C332.693 107.277 332.688 107.723 332.672 108.064C332.597 109.552 332.197 110.621 331.472 111.272C330.752 111.917 329.6 112.24 328.016 112.24ZM328.016 111.432C326.768 111.432 325.832 111.179 325.208 110.672C324.589 110.165 324.253 109.28 324.2 108.016C324.173 107.232 324.152 106.368 324.136 105.424C324.12 104.48 324.112 103.507 324.112 102.504C324.112 101.496 324.117 100.509 324.128 99.544C324.144 98.5733 324.168 97.672 324.2 96.84C324.253 95.56 324.587 94.6613 325.2 94.144C325.813 93.6267 326.744 93.368 327.992 93.368C329.24 93.368 330.149 93.6293 330.72 94.152C331.291 94.6693 331.603 95.5253 331.656 96.72C331.667 96.9173 331.675 97.3173 331.68 97.92C331.691 98.5227 331.693 99.224 331.688 100.024C331.688 100.824 331.675 101.621 331.648 102.416H324.616C324.616 103.355 324.624 104.315 324.64 105.296C324.656 106.272 324.68 107.168 324.712 107.984C324.755 109.093 325.04 109.877 325.568 110.336C326.096 110.789 326.912 111.016 328.016 111.016C329.061 111.016 329.829 110.787 330.32 110.328C330.816 109.869 331.093 109.096 331.152 108.008C331.168 107.677 331.173 107.248 331.168 106.72C331.168 106.187 331.155 105.709 331.128 105.288H331.632C331.659 105.72 331.672 106.2 331.672 106.728C331.677 107.251 331.672 107.683 331.656 108.024C331.597 109.24 331.285 110.112 330.72 110.64C330.155 111.168 329.253 111.432 328.016 111.432ZM324.616 102H331.152C331.173 101.291 331.184 100.576 331.184 99.856C331.184 99.136 331.181 98.496 331.176 97.936C331.171 97.3707 331.163 96.976 331.152 96.752C331.104 95.696 330.835 94.9387 330.344 94.48C329.859 94.016 329.075 93.784 327.992 93.784C326.872 93.784 326.056 94.0213 325.544 94.496C325.037 94.9653 324.76 95.7547 324.712 96.864C324.68 97.6427 324.656 98.4827 324.64 99.384C324.629 100.28 324.621 101.152 324.616 102ZM325.128 101.576C325.128 101.181 325.131 100.717 325.136 100.184C325.147 99.6507 325.157 99.0987 325.168 98.528C325.179 97.952 325.195 97.4053 325.216 96.888C325.253 95.9173 325.488 95.224 325.92 94.808C326.357 94.392 327.048 94.184 327.992 94.184C328.899 94.184 329.557 94.384 329.968 94.784C330.379 95.184 330.603 95.8453 330.64 96.768C330.651 96.992 330.659 97.3627 330.664 97.88C330.675 98.392 330.677 98.9733 330.672 99.624C330.672 100.275 330.664 100.925 330.648 101.576H325.128ZM325.64 101.16H330.144C330.16 100.52 330.168 99.9013 330.168 99.304C330.168 98.7067 330.165 98.184 330.16 97.736C330.155 97.288 330.147 96.976 330.136 96.8C330.104 96.048 329.931 95.4933 329.616 95.136C329.301 94.7733 328.76 94.592 327.992 94.592C327.197 94.592 326.627 94.776 326.28 95.144C325.939 95.512 325.752 96.0987 325.72 96.904C325.709 97.4053 325.696 97.8933 325.68 98.368C325.669 98.8373 325.661 99.3013 325.656 99.76C325.651 100.219 325.645 100.685 325.64 101.16ZM335.729 112V86.4H336.241V112H335.729ZM336.745 112V86.4H337.249V90.896L337.161 96.704H337.281C337.494 95.696 337.942 94.888 338.625 94.28C339.313 93.6667 340.169 93.3653 341.193 93.376C342.324 93.3867 343.153 93.6853 343.681 94.272C344.209 94.8533 344.505 95.808 344.569 97.136C344.633 98.3413 344.676 99.5227 344.697 100.68C344.718 101.832 344.718 102.981 344.697 104.128C344.681 105.275 344.638 106.445 344.569 107.64C344.494 108.963 344.206 109.925 343.705 110.528C343.204 111.131 342.393 111.432 341.273 111.432C340.254 111.432 339.366 111.133 338.609 110.536C337.852 109.939 337.39 109.115 337.225 108.064H337.105L337.249 112H336.745ZM341.073 111.032C342.028 111.032 342.75 110.787 343.241 110.296C343.737 109.8 344.014 108.907 344.073 107.616C344.142 105.931 344.18 104.256 344.185 102.592C344.19 100.928 344.15 99.1067 344.065 97.128C344.012 95.9387 343.753 95.0853 343.289 94.568C342.825 94.0507 342.086 93.792 341.073 93.792C340.305 93.792 339.652 93.9573 339.113 94.288C338.58 94.6187 338.164 95.0613 337.865 95.616C337.572 96.1707 337.401 96.7893 337.353 97.472C337.289 98.4693 337.249 99.5467 337.233 100.704C337.222 101.861 337.23 103.013 337.257 104.16C337.284 105.307 337.318 106.36 337.361 107.32C337.393 108.061 337.572 108.712 337.897 109.272C338.228 109.832 338.668 110.267 339.217 110.576C339.766 110.88 340.385 111.032 341.073 111.032ZM340.937 110.616C339.902 110.616 339.137 110.291 338.641 109.64C338.145 108.989 337.878 108.213 337.841 107.312C337.804 106.315 337.777 105.229 337.761 104.056C337.745 102.883 337.742 101.725 337.753 100.584C337.769 99.4373 337.798 98.4133 337.841 97.512C337.889 96.5893 338.177 95.8027 338.705 95.152C339.238 94.5013 340.009 94.176 341.017 94.176C341.892 94.176 342.524 94.408 342.913 94.872C343.308 95.336 343.526 96.096 343.569 97.152C343.612 98.3787 343.641 99.5653 343.657 100.712C343.673 101.853 343.676 102.992 343.665 104.128C343.654 105.259 343.622 106.424 343.569 107.624C343.521 108.728 343.284 109.504 342.857 109.952C342.436 110.395 341.796 110.616 340.937 110.616ZM340.929 110.208C341.628 110.208 342.148 110.016 342.489 109.632C342.83 109.243 343.02 108.571 343.057 107.616C343.126 106.032 343.164 104.392 343.169 102.696C343.18 100.995 343.142 99.1493 343.057 97.16C343.02 96.2373 342.841 95.5787 342.521 95.184C342.201 94.7893 341.697 94.592 341.009 94.592C340.188 94.592 339.548 94.8773 339.089 95.448C338.636 96.0187 338.39 96.7093 338.353 97.52C338.31 98.4907 338.281 99.5733 338.265 100.768C338.254 101.957 338.257 103.128 338.273 104.28C338.289 105.432 338.316 106.435 338.353 107.288C338.39 108.083 338.614 108.768 339.025 109.344C339.436 109.92 340.07 110.208 340.929 110.208ZM341.465 112.24C340.74 112.24 340.068 112.099 339.449 111.816C338.836 111.533 338.348 111.141 337.985 110.64H337.873L338.145 111.808L338.153 112H337.657L337.433 109.664H337.553C337.916 110.336 338.436 110.867 339.113 111.256C339.796 111.64 340.545 111.832 341.361 111.832C342.572 111.832 343.473 111.515 344.065 110.88C344.657 110.245 344.996 109.165 345.081 107.64C345.145 106.509 345.185 105.368 345.201 104.216C345.222 103.059 345.222 101.888 345.201 100.704C345.18 99.52 345.14 98.328 345.081 97.128C344.996 95.592 344.652 94.5173 344.049 93.904C343.452 93.2853 342.556 92.976 341.361 92.976C340.476 92.976 339.71 93.176 339.065 93.576C338.42 93.976 337.934 94.5227 337.609 95.216H337.489L337.737 90.848V86.4H338.265V90.704L337.857 94.256H337.985C338.396 93.68 338.908 93.2533 339.521 92.976C340.14 92.6987 340.812 92.56 341.537 92.56C342.849 92.56 343.828 92.904 344.473 93.592C345.124 94.28 345.492 95.448 345.577 97.096C345.641 98.328 345.684 99.5253 345.705 100.688C345.726 101.851 345.726 103.008 345.705 104.16C345.689 105.307 345.646 106.483 345.577 107.688C345.481 109.325 345.108 110.493 344.457 111.192C343.806 111.891 342.809 112.24 341.465 112.24ZM365.182 112H364.67V86.4H365.182V112ZM364.166 112H363.694L363.798 108.064H363.694C363.523 109.115 363.059 109.939 362.302 110.536C361.55 111.133 360.662 111.432 359.638 111.432C358.582 111.432 357.787 111.149 357.254 110.584C356.726 110.013 356.419 109.029 356.334 107.632C356.28 106.581 356.24 105.496 356.214 104.376C356.192 103.251 356.192 102.085 356.214 100.88C356.235 99.6747 356.278 98.424 356.342 97.128C356.411 95.7413 356.744 94.7707 357.342 94.216C357.939 93.6613 358.824 93.384 359.998 93.384C360.974 93.384 361.776 93.6773 362.406 94.264C363.035 94.8507 363.448 95.664 363.646 96.704H363.766L363.662 91.952V86.4H364.166V112ZM359.846 111.032C360.528 111.032 361.142 110.88 361.686 110.576C362.23 110.272 362.667 109.843 362.998 109.288C363.334 108.733 363.518 108.077 363.55 107.32C363.598 106.349 363.632 105.288 363.654 104.136C363.68 102.984 363.688 101.832 363.678 100.68C363.667 99.528 363.63 98.472 363.566 97.512C363.512 96.7653 363.344 96.1147 363.062 95.56C362.784 95.0053 362.4 94.5733 361.91 94.264C361.419 93.9493 360.824 93.792 360.126 93.792C359.016 93.792 358.206 94.0507 357.694 94.568C357.182 95.08 356.899 95.9387 356.846 97.144C356.792 98.4507 356.755 99.6773 356.734 100.824C356.718 101.965 356.718 103.091 356.734 104.2C356.755 105.304 356.792 106.456 356.846 107.656C356.899 108.861 357.158 109.725 357.622 110.248C358.091 110.771 358.832 111.032 359.846 111.032ZM359.974 110.616C359.088 110.616 358.44 110.384 358.03 109.92C357.619 109.456 357.39 108.688 357.342 107.616C357.299 106.432 357.27 105.283 357.254 104.168C357.238 103.048 357.238 101.912 357.254 100.76C357.27 99.608 357.302 98.3893 357.35 97.104C357.392 96.0747 357.632 95.3307 358.07 94.872C358.507 94.408 359.208 94.176 360.174 94.176C361.102 94.176 361.803 94.4693 362.278 95.056C362.758 95.6373 363.022 96.456 363.07 97.512C363.107 98.3387 363.134 99.3013 363.15 100.4C363.166 101.499 363.168 102.648 363.158 103.848C363.147 105.043 363.118 106.2 363.07 107.32C363.032 108.221 362.766 108.997 362.27 109.648C361.774 110.293 361.008 110.616 359.974 110.616ZM359.99 110.208C360.838 110.208 361.47 109.923 361.886 109.352C362.302 108.781 362.528 108.099 362.566 107.304C362.603 106.429 362.627 105.427 362.638 104.296C362.654 103.16 362.656 102.003 362.646 100.824C362.635 99.64 362.608 98.5387 362.566 97.52C362.523 96.5813 362.304 95.8587 361.91 95.352C361.52 94.8453 360.944 94.592 360.182 94.592C359.403 94.592 358.83 94.7893 358.462 95.184C358.099 95.5733 357.899 96.2133 357.862 97.104C357.787 98.9547 357.747 100.72 357.742 102.4C357.736 104.075 357.774 105.813 357.854 107.616C357.896 108.587 358.091 109.261 358.438 109.64C358.79 110.019 359.307 110.208 359.99 110.208ZM359.446 112.24C358.043 112.24 357.03 111.875 356.406 111.144C355.782 110.408 355.424 109.243 355.334 107.648C355.27 106.485 355.227 105.347 355.206 104.232C355.184 103.112 355.184 101.971 355.206 100.808C355.227 99.64 355.27 98.4107 355.334 97.12C355.424 95.5147 355.816 94.3547 356.51 93.64C357.203 92.92 358.28 92.56 359.742 92.56C360.488 92.56 361.142 92.7067 361.702 93C362.262 93.2933 362.686 93.6853 362.974 94.176H363.094L362.646 90.488V86.4H363.174V91.04L363.486 95.136H363.326C362.958 94.3627 362.472 93.8107 361.87 93.48C361.272 93.144 360.611 92.976 359.886 92.976C358.595 92.976 357.616 93.2853 356.95 93.904C356.288 94.5173 355.918 95.584 355.838 97.104C355.774 98.4373 355.731 99.688 355.71 100.856C355.688 102.024 355.688 103.163 355.71 104.272C355.736 105.381 355.779 106.517 355.838 107.68C355.928 109.195 356.27 110.267 356.862 110.896C357.459 111.52 358.358 111.832 359.558 111.832C360.342 111.832 361.07 111.645 361.742 111.272C362.419 110.893 362.947 110.357 363.326 109.664H363.454L363.286 112H362.798V111.808L363.038 110.64H362.934C362.587 111.115 362.11 111.501 361.502 111.8C360.894 112.093 360.208 112.24 359.446 112.24ZM373.297 112.24C371.713 112.24 370.529 111.931 369.745 111.312C368.961 110.693 368.537 109.624 368.473 108.104C368.441 107.155 368.417 106.189 368.401 105.208C368.385 104.221 368.377 103.237 368.377 102.256C368.377 101.275 368.385 100.317 368.401 99.384C368.422 98.4507 368.446 97.568 368.473 96.736C368.548 95.2 368.972 94.12 369.745 93.496C370.524 92.872 371.7 92.56 373.273 92.56C374.862 92.56 376.022 92.8773 376.753 93.512C377.484 94.1413 377.884 95.2 377.953 96.688C377.964 96.848 377.972 97.168 377.977 97.648C377.982 98.1227 377.985 98.688 377.985 99.344C377.99 99.9947 377.988 100.664 377.977 101.352C377.966 102.04 377.945 102.672 377.913 103.248H370.921C370.926 103.813 370.932 104.355 370.937 104.872C370.942 105.389 370.95 105.899 370.961 106.4C370.972 106.901 370.985 107.416 371.001 107.944C371.033 108.749 371.225 109.328 371.577 109.68C371.934 110.032 372.508 110.208 373.297 110.208C373.969 110.208 374.478 110.045 374.825 109.72C375.177 109.389 375.374 108.805 375.417 107.968C375.438 107.589 375.446 107.147 375.441 106.64C375.436 106.133 375.42 105.683 375.393 105.288H375.905C375.932 105.747 375.945 106.232 375.945 106.744C375.945 107.251 375.937 107.664 375.921 107.984C375.873 108.923 375.644 109.597 375.233 110.008C374.828 110.413 374.182 110.616 373.297 110.616C372.332 110.616 371.633 110.408 371.201 109.992C370.769 109.576 370.534 108.899 370.497 107.96C370.476 107.379 370.457 106.795 370.441 106.208C370.43 105.621 370.422 105.043 370.417 104.472C370.412 103.901 370.406 103.355 370.401 102.832H377.425C377.446 102.256 377.46 101.648 377.465 101.008C377.476 100.368 377.478 99.752 377.473 99.16C377.473 98.568 377.47 98.0533 377.465 97.616C377.46 97.1733 377.452 96.872 377.441 96.712C377.382 95.368 377.03 94.408 376.385 93.832C375.74 93.256 374.702 92.968 373.273 92.968C371.865 92.968 370.812 93.2533 370.113 93.824C369.414 94.3947 369.036 95.3893 368.977 96.808C368.945 97.544 368.921 98.3733 368.905 99.296C368.889 100.213 368.881 101.173 368.881 102.176C368.881 103.179 368.889 104.179 368.905 105.176C368.921 106.173 368.945 107.117 368.977 108.008C369.03 109.363 369.388 110.339 370.049 110.936C370.71 111.533 371.793 111.832 373.297 111.832C374.694 111.832 375.718 111.541 376.369 110.96C377.02 110.379 377.377 109.405 377.441 108.04C377.452 107.816 377.457 107.541 377.457 107.216C377.462 106.891 377.462 106.557 377.457 106.216C377.452 105.869 377.438 105.56 377.417 105.288H377.921C377.953 105.699 377.969 106.179 377.969 106.728C377.974 107.277 377.969 107.723 377.953 108.064C377.878 109.552 377.478 110.621 376.753 111.272C376.033 111.917 374.881 112.24 373.297 112.24ZM373.297 111.432C372.049 111.432 371.113 111.179 370.489 110.672C369.87 110.165 369.534 109.28 369.481 108.016C369.454 107.232 369.433 106.368 369.417 105.424C369.401 104.48 369.393 103.507 369.393 102.504C369.393 101.496 369.398 100.509 369.409 99.544C369.425 98.5733 369.449 97.672 369.481 96.84C369.534 95.56 369.868 94.6613 370.481 94.144C371.094 93.6267 372.025 93.368 373.273 93.368C374.521 93.368 375.43 93.6293 376.001 94.152C376.572 94.6693 376.884 95.5253 376.937 96.72C376.948 96.9173 376.956 97.3173 376.961 97.92C376.972 98.5227 376.974 99.224 376.969 100.024C376.969 100.824 376.956 101.621 376.929 102.416H369.897C369.897 103.355 369.905 104.315 369.921 105.296C369.937 106.272 369.961 107.168 369.993 107.984C370.036 109.093 370.321 109.877 370.849 110.336C371.377 110.789 372.193 111.016 373.297 111.016C374.342 111.016 375.11 110.787 375.601 110.328C376.097 109.869 376.374 109.096 376.433 108.008C376.449 107.677 376.454 107.248 376.449 106.72C376.449 106.187 376.436 105.709 376.409 105.288H376.913C376.94 105.72 376.953 106.2 376.953 106.728C376.958 107.251 376.953 107.683 376.937 108.024C376.878 109.24 376.566 110.112 376.001 110.64C375.436 111.168 374.534 111.432 373.297 111.432ZM369.897 102H376.433C376.454 101.291 376.465 100.576 376.465 99.856C376.465 99.136 376.462 98.496 376.457 97.936C376.452 97.3707 376.444 96.976 376.433 96.752C376.385 95.696 376.116 94.9387 375.625 94.48C375.14 94.016 374.356 93.784 373.273 93.784C372.153 93.784 371.337 94.0213 370.825 94.496C370.318 94.9653 370.041 95.7547 369.993 96.864C369.961 97.6427 369.937 98.4827 369.921 99.384C369.91 100.28 369.902 101.152 369.897 102ZM370.409 101.576C370.409 101.181 370.412 100.717 370.417 100.184C370.428 99.6507 370.438 99.0987 370.449 98.528C370.46 97.952 370.476 97.4053 370.497 96.888C370.534 95.9173 370.769 95.224 371.201 94.808C371.638 94.392 372.329 94.184 373.273 94.184C374.18 94.184 374.838 94.384 375.249 94.784C375.66 95.184 375.884 95.8453 375.921 96.768C375.932 96.992 375.94 97.3627 375.945 97.88C375.956 98.392 375.958 98.9733 375.953 99.624C375.953 100.275 375.945 100.925 375.929 101.576H370.409ZM370.921 101.16H375.425C375.441 100.52 375.449 99.9013 375.449 99.304C375.449 98.7067 375.446 98.184 375.441 97.736C375.436 97.288 375.428 96.976 375.417 96.8C375.385 96.048 375.212 95.4933 374.897 95.136C374.582 94.7733 374.041 94.592 373.273 94.592C372.478 94.592 371.908 94.776 371.561 95.144C371.22 95.512 371.033 96.0987 371.001 96.904C370.99 97.4053 370.977 97.8933 370.961 98.368C370.95 98.8373 370.942 99.3013 370.937 99.76C370.932 100.219 370.926 100.685 370.921 101.16ZM384.962 112.24C383.442 112.24 382.333 111.92 381.634 111.28C380.941 110.635 380.568 109.563 380.514 108.064C380.498 107.6 380.49 107.141 380.49 106.688C380.49 106.235 380.504 105.787 380.53 105.344H381.01C380.984 105.76 380.97 106.203 380.97 106.672C380.976 107.136 380.986 107.595 381.002 108.048C381.05 109.419 381.386 110.392 382.01 110.968C382.64 111.544 383.624 111.832 384.962 111.832C386.45 111.832 387.512 111.541 388.146 110.96C388.786 110.373 389.128 109.429 389.17 108.128C389.181 107.808 389.186 107.555 389.186 107.368C389.192 107.176 389.192 106.987 389.186 106.8C389.186 106.608 389.186 106.355 389.186 106.04C389.186 104.749 388.92 103.816 388.386 103.24C387.858 102.659 387.08 102.216 386.05 101.912L384.586 101.472C384.117 101.333 383.728 101.176 383.418 101C383.109 100.824 382.874 100.549 382.714 100.176C382.554 99.7973 382.458 99.2453 382.426 98.52C382.416 98.1413 382.405 97.8427 382.394 97.624C382.384 97.4053 382.384 97.128 382.394 96.792C382.426 95.9227 382.64 95.272 383.034 94.84C383.429 94.4027 384.106 94.184 385.066 94.184C385.898 94.184 386.52 94.3867 386.93 94.792C387.341 95.1973 387.57 95.8773 387.618 96.832C387.629 97.0347 387.632 97.3867 387.626 97.888C387.626 98.3893 387.61 98.8827 387.578 99.368H387.098C387.125 98.888 387.138 98.3973 387.138 97.896C387.144 97.3893 387.141 97.04 387.13 96.848C387.088 96.0693 386.901 95.4987 386.57 95.136C386.24 94.7733 385.738 94.592 385.066 94.592C384.341 94.592 383.802 94.7627 383.45 95.104C383.098 95.4453 382.909 96.0107 382.882 96.8C382.872 97.152 382.869 97.4427 382.874 97.672C382.885 97.896 382.898 98.176 382.914 98.512C382.946 99.1467 383.024 99.624 383.146 99.944C383.269 100.259 383.458 100.491 383.714 100.64C383.97 100.789 384.306 100.928 384.722 101.056L386.17 101.488C386.912 101.712 387.541 101.995 388.058 102.336C388.581 102.672 388.981 103.133 389.258 103.72C389.536 104.301 389.674 105.075 389.674 106.04C389.674 106.36 389.674 106.616 389.674 106.808C389.68 107 389.68 107.189 389.674 107.376C389.674 107.563 389.666 107.816 389.65 108.136C389.608 109.544 389.24 110.581 388.546 111.248C387.853 111.909 386.658 112.24 384.962 112.24ZM384.962 111.432C383.789 111.432 382.928 111.173 382.378 110.656C381.829 110.139 381.53 109.261 381.482 108.024C381.466 107.581 381.458 107.131 381.458 106.672C381.458 106.208 381.469 105.765 381.49 105.344H381.97C381.949 105.765 381.938 106.203 381.938 106.656C381.944 107.104 381.954 107.555 381.97 108.008C382.008 109.112 382.266 109.891 382.746 110.344C383.226 110.792 383.965 111.016 384.962 111.016C386.066 111.016 386.872 110.795 387.378 110.352C387.89 109.909 388.162 109.157 388.194 108.096C388.21 107.712 388.216 107.373 388.21 107.08C388.21 106.781 388.21 106.435 388.21 106.04C388.21 104.957 388.002 104.195 387.586 103.752C387.176 103.304 386.584 102.965 385.81 102.736L384.322 102.304C383.714 102.123 383.205 101.915 382.794 101.68C382.384 101.44 382.069 101.083 381.85 100.608C381.632 100.128 381.498 99.4373 381.45 98.536C381.434 98.1947 381.424 97.8827 381.418 97.6C381.418 97.3173 381.418 97.0453 381.418 96.784C381.424 95.5573 381.72 94.6827 382.306 94.16C382.893 93.632 383.813 93.368 385.066 93.368C386.288 93.368 387.162 93.648 387.69 94.208C388.218 94.7627 388.514 95.616 388.578 96.768C388.6 97.056 388.605 97.4587 388.594 97.976C388.589 98.488 388.568 98.952 388.53 99.368H388.058C388.085 98.9573 388.101 98.4773 388.106 97.928C388.112 97.3733 388.109 97.0053 388.098 96.824C388.045 95.7307 387.776 94.952 387.29 94.488C386.805 94.0187 386.064 93.784 385.066 93.784C383.957 93.784 383.16 94.0213 382.674 94.496C382.194 94.9707 381.941 95.7253 381.914 96.76C381.904 97.144 381.901 97.4507 381.906 97.68C381.917 97.904 381.93 98.1867 381.946 98.528C381.978 99.3387 382.085 99.9573 382.266 100.384C382.453 100.811 382.725 101.128 383.082 101.336C383.445 101.539 383.901 101.723 384.45 101.888L385.93 102.328C386.853 102.6 387.546 102.995 388.01 103.512C388.474 104.024 388.706 104.867 388.706 106.04C388.706 106.365 388.706 106.685 388.706 107C388.706 107.309 388.698 107.68 388.682 108.112C388.64 109.28 388.336 110.125 387.77 110.648C387.21 111.171 386.274 111.432 384.962 111.432ZM384.962 110.616C384.13 110.616 383.512 110.421 383.106 110.032C382.701 109.637 382.482 108.957 382.45 107.992C382.44 107.507 382.432 107.059 382.426 106.648C382.421 106.232 382.429 105.797 382.45 105.344H382.93C382.909 105.803 382.901 106.232 382.906 106.632C382.912 107.027 382.922 107.475 382.938 107.976C382.965 108.776 383.136 109.349 383.45 109.696C383.765 110.037 384.269 110.208 384.962 110.208C385.73 110.208 386.29 110.048 386.642 109.728C386.994 109.408 387.186 108.861 387.218 108.088C387.245 107.613 387.256 107.261 387.25 107.032C387.245 106.803 387.242 106.472 387.242 106.04C387.242 105.229 387.106 104.659 386.834 104.328C386.568 103.992 386.144 103.739 385.562 103.568L384.042 103.12C383.248 102.88 382.594 102.603 382.082 102.288C381.57 101.968 381.186 101.52 380.93 100.944C380.674 100.363 380.525 99.5627 380.482 98.544C380.461 98.112 380.448 97.776 380.442 97.536C380.442 97.296 380.445 97.0267 380.45 96.728C380.45 95.2027 380.829 94.128 381.586 93.504C382.344 92.8747 383.504 92.56 385.066 92.56C386.581 92.56 387.682 92.8853 388.37 93.536C389.058 94.1813 389.45 95.2453 389.546 96.728C389.562 96.9787 389.568 97.3707 389.562 97.904C389.557 98.4373 389.533 98.9253 389.49 99.368H389.018C389.056 98.904 389.074 98.4133 389.074 97.896C389.08 97.3733 389.074 96.9893 389.058 96.744C388.984 95.416 388.64 94.456 388.026 93.864C387.413 93.2667 386.426 92.968 385.066 92.968C383.605 92.968 382.552 93.2693 381.906 93.872C381.261 94.4747 380.938 95.4427 380.938 96.776C380.933 97.032 380.93 97.2933 380.93 97.56C380.936 97.8213 380.949 98.1467 380.97 98.536C381.024 99.5067 381.17 100.256 381.41 100.784C381.65 101.312 382 101.712 382.458 101.984C382.917 102.256 383.493 102.496 384.186 102.704L385.69 103.152C386.394 103.36 386.909 103.664 387.234 104.064C387.565 104.459 387.73 105.117 387.73 106.04C387.73 106.355 387.73 106.608 387.73 106.8C387.73 106.987 387.73 107.173 387.73 107.36C387.73 107.541 387.722 107.792 387.706 108.112C387.674 108.971 387.453 109.603 387.042 110.008C386.637 110.413 385.944 110.616 384.962 110.616ZM392.604 87.088V86.624H395.14V87.088H392.604ZM392.604 88.936V88.472H395.14V88.936H392.604ZM392.604 88.008V87.552H395.14V88.008H392.604ZM394.636 112V92.8H395.14V112H394.636ZM392.604 112V92.8H393.116V112H392.604ZM393.62 112V92.8H394.124V112H393.62ZM403.17 117.392C401.511 117.392 400.266 117.131 399.434 116.608C398.607 116.085 398.146 115.277 398.05 114.184C398.039 114.035 398.037 113.88 398.042 113.72C398.047 113.565 398.061 113.411 398.082 113.256C398.141 112.632 398.327 112.136 398.642 111.768C398.957 111.395 399.415 111.125 400.018 110.96V110.848C399.565 110.715 399.226 110.523 399.002 110.272C398.778 110.016 398.645 109.661 398.602 109.208C398.597 109.101 398.594 108.981 398.594 108.848C398.594 108.715 398.597 108.592 398.602 108.48C398.634 107.973 398.765 107.557 398.994 107.232C399.223 106.901 399.623 106.656 400.194 106.496V106.384C399.698 106.213 399.279 105.867 398.938 105.344C398.597 104.821 398.402 104.139 398.354 103.296C398.327 102.789 398.309 102.277 398.298 101.76C398.287 101.237 398.282 100.709 398.282 100.176C398.282 99.6427 398.287 99.096 398.298 98.536C398.309 97.9707 398.325 97.3947 398.346 96.808C398.41 95.2933 398.823 94.208 399.586 93.552C400.349 92.8907 401.533 92.56 403.138 92.56C404.215 92.56 405.026 92.7147 405.57 93.024C406.114 93.328 406.49 93.7787 406.698 94.376H406.802C407.005 94.008 407.285 93.7067 407.642 93.472C408.005 93.2373 408.389 93.0667 408.794 92.96C409.205 92.848 409.578 92.7947 409.914 92.8V93.216C409.061 93.2107 408.367 93.3813 407.834 93.728C407.306 94.0693 406.949 94.504 406.762 95.032H406.642C406.466 94.3333 406.111 93.816 405.578 93.48C405.045 93.1387 404.231 92.968 403.138 92.968C401.719 92.968 400.663 93.264 399.97 93.856C399.277 94.4427 398.906 95.4213 398.858 96.792C398.826 97.6027 398.802 98.3653 398.786 99.08C398.775 99.7893 398.775 100.483 398.786 101.16C398.797 101.832 398.821 102.528 398.858 103.248C398.906 104.181 399.111 104.901 399.474 105.408C399.842 105.915 400.325 106.245 400.922 106.4V106.512C400.245 106.672 399.767 106.904 399.49 107.208C399.218 107.512 399.066 107.936 399.034 108.48C399.023 108.603 399.018 108.725 399.018 108.848C399.018 108.965 399.023 109.088 399.034 109.216C399.071 109.664 399.207 110.005 399.442 110.24C399.677 110.475 400.101 110.677 400.714 110.848V110.96C399.978 111.115 399.445 111.371 399.114 111.728C398.789 112.08 398.589 112.589 398.514 113.256C398.487 113.427 398.466 113.573 398.45 113.696C398.439 113.819 398.445 113.979 398.466 114.176C398.562 115.152 398.97 115.869 399.69 116.328C400.415 116.792 401.575 117.024 403.17 117.024C404.807 117.024 405.999 116.789 406.746 116.32C407.493 115.851 407.914 115.093 408.01 114.048C408.031 113.856 408.039 113.688 408.034 113.544C408.034 113.405 408.021 113.243 407.994 113.056C407.893 112.144 407.474 111.477 406.738 111.056C406.002 110.635 404.839 110.4 403.25 110.352C402.562 110.325 402.01 110.272 401.594 110.192C401.183 110.112 400.879 109.992 400.682 109.832C400.485 109.672 400.362 109.467 400.314 109.216C400.293 109.125 400.279 109 400.274 108.84C400.269 108.675 400.269 108.552 400.274 108.472C400.354 107.928 400.605 107.56 401.026 107.368C401.453 107.171 402.159 107.075 403.146 107.08C404.639 107.091 405.701 106.771 406.33 106.12C406.965 105.469 407.314 104.509 407.378 103.24C407.415 102.461 407.437 101.763 407.442 101.144C407.447 100.525 407.442 99.8827 407.426 99.216C407.415 98.544 407.399 97.7467 407.378 96.824C407.357 96.0987 407.562 95.5093 407.994 95.056C408.431 94.5973 409.071 94.3787 409.914 94.4V94.808C409.178 94.7973 408.642 94.992 408.306 95.392C407.975 95.792 407.818 96.2987 407.834 96.912C407.855 97.664 407.874 98.3707 407.89 99.032C407.906 99.6933 407.914 100.363 407.914 101.04C407.914 101.717 407.893 102.456 407.85 103.256C407.775 104.76 407.367 105.84 406.626 106.496C405.885 107.152 404.722 107.48 403.138 107.48C402.583 107.48 402.135 107.509 401.794 107.568C401.453 107.627 401.197 107.733 401.026 107.888C400.861 108.037 400.762 108.256 400.73 108.544C400.725 108.571 400.722 108.651 400.722 108.784C400.722 108.917 400.73 109.016 400.746 109.08C400.789 109.293 400.893 109.461 401.058 109.584C401.229 109.701 401.49 109.787 401.842 109.84C402.194 109.893 402.666 109.931 403.258 109.952C404.986 110 406.261 110.272 407.082 110.768C407.909 111.259 408.365 112.027 408.45 113.072C408.466 113.248 408.474 113.413 408.474 113.568C408.479 113.728 408.474 113.888 408.458 114.048C408.367 115.2 407.903 116.045 407.066 116.584C406.229 117.123 404.93 117.392 403.17 117.392ZM403.17 116.28C404.125 116.28 404.887 116.192 405.458 116.016C406.029 115.845 406.445 115.597 406.706 115.272C406.973 114.947 407.119 114.555 407.146 114.096C407.162 113.877 407.167 113.696 407.162 113.552C407.162 113.413 407.151 113.248 407.13 113.056C407.087 112.645 406.933 112.299 406.666 112.016C406.399 111.733 405.989 111.512 405.434 111.352C404.879 111.192 404.146 111.091 403.234 111.048C401.943 110.989 400.997 111.136 400.394 111.488C399.791 111.835 399.429 112.429 399.306 113.272C399.285 113.421 399.269 113.565 399.258 113.704C399.247 113.848 399.253 114.016 399.274 114.208C399.354 114.949 399.703 115.48 400.322 115.8C400.941 116.12 401.89 116.28 403.17 116.28ZM403.17 115.92C401.986 115.92 401.122 115.784 400.578 115.512C400.039 115.24 399.738 114.797 399.674 114.184C399.658 114.035 399.653 113.888 399.658 113.744C399.669 113.6 399.687 113.435 399.714 113.248C399.821 112.475 400.157 111.96 400.722 111.704C401.293 111.448 402.149 111.339 403.29 111.376C404.042 111.403 404.663 111.48 405.154 111.608C405.645 111.731 406.015 111.912 406.266 112.152C406.522 112.392 406.671 112.696 406.714 113.064C406.741 113.293 406.751 113.475 406.746 113.608C406.746 113.741 406.738 113.891 406.722 114.056C406.658 114.717 406.349 115.192 405.794 115.48C405.245 115.773 404.37 115.92 403.17 115.92ZM403.17 115.536C403.858 115.536 404.418 115.488 404.85 115.392C405.287 115.296 405.618 115.136 405.842 114.912C406.071 114.693 406.207 114.405 406.25 114.048C406.271 113.883 406.282 113.72 406.282 113.56C406.287 113.4 406.271 113.235 406.234 113.064C406.202 112.787 406.079 112.557 405.866 112.376C405.658 112.2 405.341 112.064 404.914 111.968C404.487 111.867 403.93 111.8 403.242 111.768C402.202 111.715 401.445 111.811 400.97 112.056C400.501 112.307 400.226 112.704 400.146 113.248C400.109 113.397 400.087 113.557 400.082 113.728C400.082 113.899 400.093 114.051 400.114 114.184C400.173 114.643 400.437 114.981 400.906 115.2C401.381 115.424 402.135 115.536 403.17 115.536ZM403.17 116.664C401.703 116.664 400.637 116.469 399.97 116.08C399.309 115.696 398.935 115.061 398.85 114.176C398.839 114 398.837 113.845 398.842 113.712C398.847 113.579 398.861 113.424 398.882 113.248C398.951 112.555 399.189 112.029 399.594 111.672C399.999 111.309 400.639 111.069 401.514 110.952V110.84C400.826 110.749 400.319 110.579 399.994 110.328C399.669 110.077 399.477 109.707 399.418 109.216C399.402 109.088 399.394 108.963 399.394 108.84C399.394 108.712 399.397 108.589 399.402 108.472C399.434 107.891 399.634 107.445 400.002 107.136C400.37 106.821 400.917 106.608 401.642 106.496V106.4C400.949 106.251 400.405 105.925 400.01 105.424C399.621 104.917 399.402 104.181 399.354 103.216C399.322 102.587 399.301 101.933 399.29 101.256C399.285 100.579 399.287 99.872 399.298 99.136C399.309 98.4 399.327 97.6293 399.354 96.824C399.402 95.576 399.735 94.688 400.354 94.16C400.973 93.632 401.901 93.368 403.138 93.368C404.242 93.368 405.058 93.576 405.586 93.992C406.114 94.4027 406.439 95.0747 406.562 96.008H406.674C406.802 95.48 406.999 95.04 407.266 94.688C407.538 94.3307 407.89 94.0587 408.322 93.872C408.759 93.6853 409.29 93.5893 409.914 93.584V94C408.943 93.984 408.191 94.24 407.658 94.768C407.125 95.296 406.874 95.968 406.906 96.784C406.927 97.552 406.941 98.304 406.946 99.04C406.957 99.7707 406.957 100.483 406.946 101.176C406.941 101.869 406.925 102.544 406.898 103.2C406.834 104.427 406.501 105.317 405.898 105.872C405.301 106.421 404.378 106.693 403.13 106.688C402.522 106.683 401.981 106.736 401.506 106.848C401.031 106.955 400.653 107.133 400.37 107.384C400.093 107.629 399.93 107.968 399.882 108.4C399.866 108.533 399.858 108.68 399.858 108.84C399.863 108.995 399.871 109.115 399.882 109.2C399.957 109.76 400.266 110.136 400.81 110.328C401.359 110.515 402.17 110.627 403.242 110.664C404.17 110.691 404.946 110.792 405.57 110.968C406.199 111.139 406.679 111.395 407.01 111.736C407.346 112.077 407.543 112.515 407.602 113.048C407.618 113.203 407.629 113.363 407.634 113.528C407.639 113.699 407.634 113.872 407.618 114.048C407.538 115.013 407.127 115.691 406.386 116.08C405.65 116.469 404.578 116.664 403.17 116.664ZM403.138 106.24C404.194 106.24 404.989 106.003 405.522 105.528C406.055 105.053 406.349 104.28 406.402 103.208C406.434 102.504 406.453 101.816 406.458 101.144C406.463 100.467 406.461 99.7733 406.45 99.064C406.439 98.3547 406.418 97.5973 406.386 96.792C406.349 95.6933 406.058 94.9173 405.514 94.464C404.975 94.0107 404.183 93.784 403.138 93.784C401.981 93.784 401.154 94.0347 400.658 94.536C400.162 95.0373 399.895 95.8053 399.858 96.84C399.826 98.0613 399.807 99.1547 399.802 100.12C399.802 101.08 399.821 102.128 399.858 103.264C399.901 104.299 400.191 105.053 400.73 105.528C401.274 106.003 402.077 106.24 403.138 106.24ZM403.138 105.84C402.199 105.84 401.509 105.624 401.066 105.192C400.629 104.76 400.394 104.093 400.362 103.192C400.325 102.173 400.306 101.157 400.306 100.144C400.311 99.1307 400.33 98.0373 400.362 96.864C400.394 95.9093 400.634 95.224 401.082 94.808C401.53 94.392 402.215 94.184 403.138 94.184C404.039 94.184 404.714 94.3893 405.162 94.8C405.61 95.2053 405.85 95.8693 405.882 96.792C405.914 97.608 405.935 98.3733 405.946 99.088C405.957 99.8027 405.957 100.493 405.946 101.16C405.941 101.827 405.922 102.499 405.89 103.176C405.847 104.109 405.599 104.787 405.146 105.208C404.698 105.629 404.029 105.84 403.138 105.84ZM403.138 105.432C403.842 105.432 404.383 105.253 404.762 104.896C405.141 104.539 405.349 103.955 405.386 103.144C405.418 102.515 405.437 101.869 405.442 101.208C405.453 100.547 405.45 99.8533 405.434 99.128C405.423 98.3973 405.405 97.624 405.378 96.808C405.346 95.9973 405.135 95.4267 404.746 95.096C404.362 94.76 403.826 94.592 403.138 94.592C402.413 94.592 401.858 94.7653 401.474 95.112C401.09 95.4533 400.885 96.0427 400.858 96.88C400.831 97.968 400.815 99.0267 400.81 100.056C400.805 101.08 400.821 102.12 400.858 103.176C400.895 103.965 401.101 104.539 401.474 104.896C401.847 105.253 402.402 105.432 403.138 105.432ZM421.192 112V97.128C421.192 96.6533 421.152 96.1733 421.072 95.688C420.992 95.2027 420.83 94.7573 420.584 94.352C420.344 93.9413 419.984 93.6107 419.504 93.36C419.03 93.1093 418.398 92.984 417.608 92.984C416.68 92.984 415.878 93.184 415.2 93.584C414.528 93.984 414 94.528 413.616 95.216H413.496L413.752 92.8H414.264V93.064L413.944 94.248H414.056C414.504 93.656 415.035 93.2267 415.648 92.96C416.267 92.688 416.963 92.552 417.736 92.552C418.435 92.552 419.019 92.6427 419.488 92.824C419.963 93.0053 420.344 93.2533 420.632 93.568C420.926 93.8773 421.15 94.2267 421.304 94.616C421.459 95.0053 421.563 95.4107 421.616 95.832C421.67 96.2533 421.696 96.6613 421.696 97.056V112H421.192ZM411.76 112V92.8H412.272V112H411.76ZM413.792 112V97.6C413.792 97.0133 413.934 96.472 414.216 95.976C414.504 95.4747 414.904 95.072 415.416 94.768C415.934 94.464 416.534 94.312 417.216 94.312C417.75 94.312 418.179 94.3973 418.504 94.568C418.83 94.7387 419.078 94.9653 419.248 95.248C419.419 95.5307 419.534 95.848 419.592 96.2C419.651 96.5467 419.68 96.9013 419.68 97.264V112H419.176V97.288C419.176 96.84 419.128 96.424 419.032 96.04C418.936 95.6507 418.742 95.336 418.448 95.096C418.16 94.856 417.728 94.736 417.152 94.736C416.619 94.736 416.136 94.8613 415.704 95.112C415.278 95.3573 414.939 95.6933 414.688 96.12C414.443 96.5467 414.32 97.0293 414.32 97.568L414.296 112H413.792ZM412.776 112V92.8H413.28L413.176 96.376H413.296C413.611 95.4533 414.128 94.7307 414.848 94.208C415.568 93.68 416.44 93.4187 417.464 93.424C418.68 93.4293 419.52 93.76 419.984 94.416C420.454 95.072 420.688 95.984 420.688 97.152V112H420.184V97.2C420.184 96.1173 419.974 95.288 419.552 94.712C419.131 94.136 418.39 93.848 417.328 93.848C416.502 93.848 415.787 94.032 415.184 94.4C414.582 94.7627 414.115 95.232 413.784 95.808C413.459 96.3787 413.296 96.984 413.296 97.624V112H412.776ZM429.735 112.24C428.151 112.24 426.967 111.931 426.183 111.312C425.399 110.693 424.975 109.624 424.911 108.104C424.879 107.155 424.855 106.189 424.839 105.208C424.823 104.221 424.815 103.237 424.815 102.256C424.815 101.275 424.823 100.317 424.839 99.384C424.86 98.4507 424.884 97.568 424.911 96.736C424.985 95.2 425.409 94.12 426.183 93.496C426.961 92.872 428.137 92.56 429.711 92.56C431.3 92.56 432.46 92.8773 433.191 93.512C433.921 94.1413 434.321 95.2 434.391 96.688C434.401 96.848 434.409 97.168 434.415 97.648C434.42 98.1227 434.423 98.688 434.423 99.344C434.428 99.9947 434.425 100.664 434.415 101.352C434.404 102.04 434.383 102.672 434.351 103.248H427.359C427.364 103.813 427.369 104.355 427.375 104.872C427.38 105.389 427.388 105.899 427.399 106.4C427.409 106.901 427.423 107.416 427.439 107.944C427.471 108.749 427.663 109.328 428.015 109.68C428.372 110.032 428.945 110.208 429.735 110.208C430.407 110.208 430.916 110.045 431.263 109.72C431.615 109.389 431.812 108.805 431.855 107.968C431.876 107.589 431.884 107.147 431.879 106.64C431.873 106.133 431.857 105.683 431.831 105.288H432.343C432.369 105.747 432.383 106.232 432.383 106.744C432.383 107.251 432.375 107.664 432.359 107.984C432.311 108.923 432.081 109.597 431.671 110.008C431.265 110.413 430.62 110.616 429.735 110.616C428.769 110.616 428.071 110.408 427.639 109.992C427.207 109.576 426.972 108.899 426.935 107.96C426.913 107.379 426.895 106.795 426.879 106.208C426.868 105.621 426.86 105.043 426.855 104.472C426.849 103.901 426.844 103.355 426.839 102.832H433.863C433.884 102.256 433.897 101.648 433.903 101.008C433.913 100.368 433.916 99.752 433.911 99.16C433.911 98.568 433.908 98.0533 433.903 97.616C433.897 97.1733 433.889 96.872 433.879 96.712C433.82 95.368 433.468 94.408 432.823 93.832C432.177 93.256 431.14 92.968 429.711 92.968C428.303 92.968 427.249 93.2533 426.551 93.824C425.852 94.3947 425.473 95.3893 425.415 96.808C425.383 97.544 425.359 98.3733 425.343 99.296C425.327 100.213 425.319 101.173 425.319 102.176C425.319 103.179 425.327 104.179 425.343 105.176C425.359 106.173 425.383 107.117 425.415 108.008C425.468 109.363 425.825 110.339 426.487 110.936C427.148 111.533 428.231 111.832 429.735 111.832C431.132 111.832 432.156 111.541 432.807 110.96C433.457 110.379 433.815 109.405 433.879 108.04C433.889 107.816 433.895 107.541 433.895 107.216C433.9 106.891 433.9 106.557 433.895 106.216C433.889 105.869 433.876 105.56 433.855 105.288H434.359C434.391 105.699 434.407 106.179 434.407 106.728C434.412 107.277 434.407 107.723 434.391 108.064C434.316 109.552 433.916 110.621 433.191 111.272C432.471 111.917 431.319 112.24 429.735 112.24ZM429.735 111.432C428.487 111.432 427.551 111.179 426.927 110.672C426.308 110.165 425.972 109.28 425.919 108.016C425.892 107.232 425.871 106.368 425.855 105.424C425.839 104.48 425.831 103.507 425.831 102.504C425.831 101.496 425.836 100.509 425.847 99.544C425.863 98.5733 425.887 97.672 425.919 96.84C425.972 95.56 426.305 94.6613 426.919 94.144C427.532 93.6267 428.463 93.368 429.711 93.368C430.959 93.368 431.868 93.6293 432.439 94.152C433.009 94.6693 433.321 95.5253 433.375 96.72C433.385 96.9173 433.393 97.3173 433.399 97.92C433.409 98.5227 433.412 99.224 433.407 100.024C433.407 100.824 433.393 101.621 433.367 102.416H426.335C426.335 103.355 426.343 104.315 426.359 105.296C426.375 106.272 426.399 107.168 426.431 107.984C426.473 109.093 426.759 109.877 427.287 110.336C427.815 110.789 428.631 111.016 429.735 111.016C430.78 111.016 431.548 110.787 432.039 110.328C432.535 109.869 432.812 109.096 432.871 108.008C432.887 107.677 432.892 107.248 432.887 106.72C432.887 106.187 432.873 105.709 432.847 105.288H433.351C433.377 105.72 433.391 106.2 433.391 106.728C433.396 107.251 433.391 107.683 433.375 108.024C433.316 109.24 433.004 110.112 432.439 110.64C431.873 111.168 430.972 111.432 429.735 111.432ZM426.335 102H432.871C432.892 101.291 432.903 100.576 432.903 99.856C432.903 99.136 432.9 98.496 432.895 97.936C432.889 97.3707 432.881 96.976 432.871 96.752C432.823 95.696 432.553 94.9387 432.063 94.48C431.577 94.016 430.793 93.784 429.711 93.784C428.591 93.784 427.775 94.0213 427.263 94.496C426.756 94.9653 426.479 95.7547 426.431 96.864C426.399 97.6427 426.375 98.4827 426.359 99.384C426.348 100.28 426.34 101.152 426.335 102ZM426.847 101.576C426.847 101.181 426.849 100.717 426.855 100.184C426.865 99.6507 426.876 99.0987 426.887 98.528C426.897 97.952 426.913 97.4053 426.935 96.888C426.972 95.9173 427.207 95.224 427.639 94.808C428.076 94.392 428.767 94.184 429.711 94.184C430.617 94.184 431.276 94.384 431.687 94.784C432.097 95.184 432.321 95.8453 432.359 96.768C432.369 96.992 432.377 97.3627 432.383 97.88C432.393 98.392 432.396 98.9733 432.391 99.624C432.391 100.275 432.383 100.925 432.367 101.576H426.847ZM427.359 101.16H431.863C431.879 100.52 431.887 99.9013 431.887 99.304C431.887 98.7067 431.884 98.184 431.879 97.736C431.873 97.288 431.865 96.976 431.855 96.8C431.823 96.048 431.649 95.4933 431.335 95.136C431.02 94.7733 430.479 94.592 429.711 94.592C428.916 94.592 428.345 94.776 427.999 95.144C427.657 95.512 427.471 96.0987 427.439 96.904C427.428 97.4053 427.415 97.8933 427.399 98.368C427.388 98.8373 427.38 99.3013 427.375 99.76C427.369 100.219 427.364 100.685 427.359 101.16ZM438.464 112V92.8H438.968V94.208L438.84 96.376H438.984C439.288 95.4747 439.8 94.7893 440.52 94.32C441.245 93.8453 442.112 93.608 443.12 93.608C443.387 93.608 443.667 93.616 443.96 93.632C444.259 93.6427 444.485 93.6533 444.64 93.664V94.096C444.437 94.0853 444.173 94.0773 443.848 94.072C443.528 94.0613 443.243 94.056 442.992 94.056C442.16 94.056 441.445 94.2293 440.848 94.576C440.251 94.9173 439.795 95.36 439.48 95.904C439.165 96.448 439.008 97.024 439.008 97.632V112H438.464ZM437.448 112V92.8H437.96V112H437.448ZM439.48 112V97.6C439.48 96.7147 439.797 95.9813 440.432 95.4C441.072 94.8187 441.869 94.528 442.824 94.528C443.139 94.528 443.456 94.5307 443.776 94.536C444.096 94.536 444.384 94.5413 444.64 94.552V94.984C444.389 94.9733 444.101 94.968 443.776 94.968C443.456 94.9627 443.139 94.96 442.824 94.96C442.045 94.96 441.381 95.192 440.832 95.656C440.283 96.1147 440.008 96.752 440.008 97.568V112H439.48ZM439.192 95.216L439.48 93.456V92.8H439.984V93.104L439.648 94.248H439.744C440.123 93.704 440.643 93.3173 441.304 93.088C441.971 92.8533 442.653 92.736 443.352 92.736C443.528 92.736 443.733 92.7413 443.968 92.752C444.203 92.7573 444.427 92.7707 444.64 92.792V93.224C444.469 93.208 444.269 93.1973 444.04 93.192C443.811 93.1813 443.576 93.176 443.336 93.176C442.419 93.176 441.611 93.3467 440.912 93.688C440.219 94.024 439.683 94.5333 439.304 95.216H439.192Z" fill="#ABAA9D"/>
<line x1="88.5" y1="16" x2="88.5" y2="112" stroke="#F1DF3D"/>
<path d="M65.5 38C65.5 37.1716 66.1716 36.5 67 36.5H113C113.828 36.5 114.5 37.1716 114.5 38V97C114.5 97.2761 114.276 97.5 114 97.5H67C66.1716 97.5 65.5 96.8284 65.5 96V38Z" fill="#1A2D53" stroke="#F1DF3D"/>
<line x1="88" y1="111.5" x2="147" y2="111.5" stroke="#EDF13D"/>
<path d="M147.5 50C147.5 49.7239 147.276 49.5 147 49.5C146.724 49.5 146.5 49.7239 146.5 50H147.5ZM147.5 112V50H146.5V112H147.5Z" fill="#F1DF3D"/>
<line x1="88.5" y1="15.5" x2="123.5" y2="15.5" stroke="#EDF13D" stroke-linecap="round" stroke-linejoin="round"/>
<path d="M122 16V47" stroke="#F1DF3D" stroke-linecap="round"/>
<path d="M147 49.5C147.276 49.5 147.5 49.2761 147.5 49C147.5 48.7239 147.276 48.5 147 48.5V49.5ZM147 48.5L121 48.5V49.5L147 49.5V48.5Z" fill="#EDF13D"/>
<path d="M123.529 15.875L147.059 46.8125" stroke="#F1DF3D" stroke-linecap="round"/>
<path d="M83.3444 81.84C81.499 81.84 80.1764 81.488 79.3764 80.784C78.5764 80.08 78.1764 78.9147 78.1764 77.288C78.1764 77.0267 78.187 76.6373 78.2084 76.12C78.2297 75.608 78.2537 75.0427 78.2804 74.424C78.307 73.8 78.3337 73.1867 78.3604 72.584C78.387 71.9813 78.411 71.4533 78.4324 71C78.4537 70.5413 78.4644 70.2293 78.4644 70.064C78.4644 69.0613 78.219 68.24 77.7284 67.6C77.243 66.96 76.5497 66.64 75.6484 66.64H74.9444V66.208H75.6484C76.5497 66.208 77.243 65.8853 77.7284 65.24C78.219 64.5947 78.4644 63.7733 78.4644 62.776C78.4644 62.6107 78.4537 62.3013 78.4324 61.848C78.411 61.3947 78.387 60.8667 78.3604 60.264C78.3337 59.656 78.307 59.04 78.2804 58.416C78.2537 57.792 78.2297 57.224 78.2084 56.712C78.187 56.2 78.1764 55.8133 78.1764 55.552C78.1764 53.9253 78.5764 52.76 79.3764 52.056C80.1764 51.352 81.499 51 83.3444 51V51.312C81.675 51.312 80.4804 51.64 79.7604 52.296C79.0457 52.952 78.6884 54.0373 78.6884 55.552C78.6884 55.808 78.6964 56.192 78.7124 56.704C78.7337 57.2107 78.7577 57.7733 78.7844 58.392C78.811 59.0053 78.8377 59.6107 78.8644 60.208C78.8964 60.8053 78.9204 61.3307 78.9364 61.784C78.9577 62.2373 78.9684 62.552 78.9684 62.728C78.9684 63.5493 78.8404 64.2107 78.5844 64.712C78.3337 65.2133 78.0164 65.5893 77.6324 65.84C77.2537 66.0853 76.8724 66.2507 76.4884 66.336V66.504C76.8724 66.5893 77.2537 66.7573 77.6324 67.008C78.0164 67.2587 78.3337 67.632 78.5844 68.128C78.8404 68.6187 78.9684 69.28 78.9684 70.112C78.9684 70.2827 78.9577 70.5973 78.9364 71.056C78.9204 71.5147 78.8964 72.0427 78.8644 72.64C78.8377 73.2373 78.811 73.8453 78.7844 74.464C78.7577 75.0773 78.7337 75.6347 78.7124 76.136C78.6964 76.6427 78.6884 77.0267 78.6884 77.288C78.6884 78.8027 79.0457 79.888 79.7604 80.544C80.4804 81.2053 81.675 81.536 83.3444 81.536V81.84ZM83.3444 82.448C81.1364 82.448 79.555 82.0453 78.6004 81.24C77.6457 80.44 77.1684 79.12 77.1684 77.28C77.1684 77.0133 77.1764 76.6187 77.1924 76.096C77.2137 75.5733 77.2377 74.9973 77.2644 74.368C77.291 73.7333 77.3177 73.1093 77.3444 72.496C77.3764 71.8827 77.4004 71.3467 77.4164 70.888C77.4377 70.4293 77.4484 70.12 77.4484 69.96C77.4484 69.1973 77.283 68.592 76.9524 68.144C76.627 67.696 76.1924 67.472 75.6484 67.472H74.9444V67.048H75.6484C76.395 67.048 76.9657 67.328 77.3604 67.888C77.755 68.4427 77.9524 69.1493 77.9524 70.008C77.9524 70.168 77.9417 70.4773 77.9204 70.936C77.9044 71.3947 77.883 71.928 77.8564 72.536C77.8297 73.144 77.8004 73.7627 77.7684 74.392C77.7417 75.016 77.7177 75.5867 77.6964 76.104C77.6804 76.6213 77.6724 77.0133 77.6724 77.28C77.6724 79.0133 78.1097 80.256 78.9844 81.008C79.8644 81.76 81.3177 82.136 83.3444 82.136V82.448ZM83.3444 81.232C81.8617 81.232 80.7977 80.9253 80.1524 80.312C79.5124 79.704 79.1924 78.696 79.1924 77.288C79.1924 77.032 79.2004 76.6533 79.2164 76.152C79.2377 75.6507 79.2617 75.096 79.2884 74.488C79.3204 73.8747 79.3497 73.272 79.3764 72.68C79.403 72.0827 79.4244 71.5573 79.4404 71.104C79.4617 70.6453 79.4724 70.3307 79.4724 70.16C79.4724 69.056 79.2484 68.2213 78.8004 67.656C78.3577 67.0853 77.739 66.7013 76.9444 66.504V66.328C77.739 66.1307 78.3577 65.7493 78.8004 65.184C79.2484 64.6133 79.4724 63.7813 79.4724 62.688C79.4724 62.5173 79.4617 62.2053 79.4404 61.752C79.4244 61.2933 79.403 60.768 79.3764 60.176C79.3497 59.5787 79.3204 58.976 79.2884 58.368C79.2617 57.7547 79.2377 57.1973 79.2164 56.696C79.2004 56.1893 79.1924 55.808 79.1924 55.552C79.1924 54.144 79.5124 53.136 80.1524 52.528C80.7977 51.92 81.8617 51.616 83.3444 51.616V51.92C82.043 51.92 81.1097 52.2027 80.5444 52.768C79.979 53.328 79.6964 54.256 79.6964 55.552C79.6964 55.808 79.707 56.1707 79.7284 56.64C79.7497 57.1093 79.7737 57.6267 79.8004 58.192C79.827 58.752 79.8537 59.3067 79.8804 59.856C79.907 60.4053 79.931 60.8933 79.9524 61.32C79.9737 61.7413 79.9844 62.0427 79.9844 62.224C79.9844 63.312 79.7844 64.2053 79.3844 64.904C78.9844 65.6027 78.3977 66.0853 77.6244 66.352V66.488C78.3924 66.728 78.9764 67.2267 79.3764 67.984C79.7817 68.736 79.9844 69.616 79.9844 70.624C79.9844 70.8 79.9737 71.1013 79.9524 71.528C79.931 71.9493 79.907 72.4347 79.8804 72.984C79.8537 73.528 79.827 74.0827 79.8004 74.648C79.7737 75.2133 79.7497 75.7307 79.7284 76.2C79.707 76.6693 79.6964 77.032 79.6964 77.288C79.6964 78.584 79.979 79.5147 80.5444 80.08C81.1097 80.6453 82.043 80.928 83.3444 80.928V81.232ZM74.9444 65.8V65.376H75.6484C76.1924 65.376 76.627 65.1547 76.9524 64.712C77.283 64.2693 77.4484 63.6613 77.4484 62.888C77.4484 62.7333 77.4377 62.4267 77.4164 61.968C77.4004 61.5093 77.3764 60.976 77.3444 60.368C77.3177 59.7547 77.291 59.1333 77.2644 58.504C77.2377 57.8693 77.2137 57.2907 77.1924 56.768C77.1764 56.24 77.1684 55.84 77.1684 55.568C77.1684 53.7227 77.6457 52.4 78.6004 51.6C79.555 50.8 81.1364 50.4 83.3444 50.4V50.704C81.3177 50.704 79.8644 51.08 78.9844 51.832C78.1097 52.584 77.6724 53.8293 77.6724 55.568C77.6724 55.8347 77.6804 56.2293 77.6964 56.752C77.7177 57.2693 77.7417 57.8427 77.7684 58.472C77.8004 59.1013 77.8297 59.72 77.8564 60.328C77.883 60.9307 77.9044 61.4613 77.9204 61.92C77.9417 62.3733 77.9524 62.68 77.9524 62.84C77.9524 63.6933 77.755 64.4 77.3604 64.96C76.971 65.52 76.4004 65.8 75.6484 65.8H74.9444ZM85.2569 63.168V62.728H94.7689V63.168H85.2569ZM85.2569 64.928V64.488H94.7689V64.928H85.2569ZM85.2569 64.048V63.608H94.7689V64.048H85.2569ZM96.6944 81.84V81.536C98.3584 81.536 99.5504 81.2053 100.27 80.544C100.99 79.888 101.35 78.8027 101.35 77.288C101.35 77.0267 101.34 76.6427 101.318 76.136C101.302 75.6347 101.278 75.0773 101.246 74.464C101.22 73.8453 101.193 73.2373 101.166 72.64C101.14 72.0427 101.116 71.5147 101.094 71.056C101.078 70.5973 101.07 70.2827 101.07 70.112C101.07 69.28 101.196 68.6187 101.446 68.128C101.702 67.632 102.02 67.2587 102.398 67.008C102.782 66.7573 103.166 66.5893 103.55 66.504V66.336C103.166 66.2507 102.782 66.0853 102.398 65.84C102.02 65.5893 101.702 65.2133 101.446 64.712C101.196 64.2107 101.07 63.5493 101.07 62.728C101.07 62.552 101.078 62.2373 101.094 61.784C101.116 61.3307 101.14 60.8053 101.166 60.208C101.193 59.6107 101.22 59.0053 101.246 58.392C101.278 57.7733 101.302 57.2107 101.318 56.704C101.34 56.192 101.35 55.808 101.35 55.552C101.35 54.0373 100.99 52.952 100.27 52.296C99.5504 51.64 98.3584 51.312 96.6944 51.312V51C98.5397 51 99.8624 51.352 100.662 52.056C101.462 52.76 101.862 53.9253 101.862 55.552C101.862 55.8133 101.852 56.2 101.83 56.712C101.809 57.224 101.785 57.792 101.758 58.416C101.732 59.04 101.705 59.656 101.678 60.264C101.652 60.8667 101.628 61.3947 101.606 61.848C101.585 62.3013 101.574 62.6107 101.574 62.776C101.574 63.7733 101.817 64.5947 102.302 65.24C102.793 65.8853 103.489 66.208 104.39 66.208H105.094V66.64H104.39C103.489 66.64 102.793 66.96 102.302 67.6C101.817 68.24 101.574 69.0613 101.574 70.064C101.574 70.2293 101.585 70.5413 101.606 71C101.628 71.4533 101.652 71.9813 101.678 72.584C101.705 73.1867 101.732 73.8 101.758 74.424C101.785 75.0427 101.809 75.608 101.83 76.12C101.852 76.6373 101.862 77.0267 101.862 77.288C101.862 78.9147 101.462 80.08 100.662 80.784C99.8624 81.488 98.5397 81.84 96.6944 81.84ZM96.6944 82.448V82.136C98.721 82.136 100.172 81.76 101.046 81.008C101.926 80.256 102.366 79.0133 102.366 77.28C102.366 77.0133 102.356 76.6213 102.334 76.104C102.313 75.5867 102.289 75.016 102.262 74.392C102.236 73.7627 102.209 73.144 102.182 72.536C102.156 71.928 102.132 71.3947 102.11 70.936C102.089 70.4773 102.078 70.168 102.078 70.008C102.078 69.1493 102.276 68.4427 102.67 67.888C103.07 67.328 103.644 67.048 104.39 67.048H105.094V67.472H104.39C103.852 67.472 103.417 67.696 103.086 68.144C102.756 68.592 102.59 69.1973 102.59 69.96C102.59 70.12 102.598 70.4293 102.614 70.888C102.636 71.3467 102.66 71.8827 102.686 72.496C102.718 73.1093 102.748 73.7333 102.774 74.368C102.801 74.9973 102.822 75.5733 102.838 76.096C102.86 76.6187 102.87 77.0133 102.87 77.28C102.87 79.12 102.393 80.44 101.438 81.24C100.484 82.0453 98.9024 82.448 96.6944 82.448ZM96.6944 81.232V80.928C97.9957 80.928 98.9264 80.6453 99.4864 80.08C100.052 79.5147 100.334 78.584 100.334 77.288C100.334 77.032 100.324 76.6693 100.302 76.2C100.286 75.7307 100.265 75.2133 100.238 74.648C100.212 74.0827 100.182 73.528 100.15 72.984C100.124 72.4347 100.1 71.9493 100.078 71.528C100.062 71.1013 100.054 70.8 100.054 70.624C100.054 69.616 100.254 68.736 100.654 67.984C101.06 67.2267 101.646 66.728 102.414 66.488V66.352C101.641 66.0853 101.054 65.6027 100.654 64.904C100.254 64.2053 100.054 63.312 100.054 62.224C100.054 62.0427 100.062 61.7413 100.078 61.32C100.1 60.8933 100.124 60.4053 100.15 59.856C100.182 59.3067 100.212 58.752 100.238 58.192C100.265 57.6267 100.286 57.1093 100.302 56.64C100.324 56.1707 100.334 55.808 100.334 55.552C100.334 54.256 100.052 53.328 99.4864 52.768C98.9264 52.2027 97.9957 51.92 96.6944 51.92V51.616C98.177 51.616 99.2384 51.92 99.8784 52.528C100.524 53.136 100.846 54.144 100.846 55.552C100.846 55.808 100.836 56.1893 100.814 56.696C100.793 57.1973 100.769 57.7547 100.742 58.368C100.716 58.976 100.689 59.5787 100.662 60.176C100.636 60.768 100.612 61.2933 100.59 61.752C100.569 62.2053 100.558 62.5173 100.558 62.688C100.558 63.7813 100.78 64.6133 101.222 65.184C101.67 65.7493 102.294 66.1307 103.094 66.328V66.504C102.294 66.7013 101.67 67.0853 101.222 67.656C100.78 68.2213 100.558 69.056 100.558 70.16C100.558 70.3307 100.569 70.6453 100.59 71.104C100.612 71.5573 100.636 72.0827 100.662 72.68C100.689 73.272 100.716 73.8747 100.742 74.488C100.769 75.096 100.793 75.6507 100.814 76.152C100.836 76.6533 100.846 77.032 100.846 77.288C100.846 78.696 100.524 79.704 99.8784 80.312C99.2384 80.9253 98.177 81.232 96.6944 81.232ZM105.094 65.8H104.39C103.644 65.8 103.07 65.52 102.67 64.96C102.276 64.4 102.078 63.6933 102.078 62.84C102.078 62.68 102.089 62.3733 102.11 61.92C102.132 61.4613 102.156 60.9307 102.182 60.328C102.209 59.72 102.236 59.1013 102.262 58.472C102.289 57.8427 102.313 57.2693 102.334 56.752C102.356 56.2293 102.366 55.8347 102.366 55.568C102.366 53.8293 101.926 52.584 101.046 51.832C100.172 51.08 98.721 50.704 96.6944 50.704V50.4C98.9024 50.4 100.484 50.8 101.438 51.6C102.393 52.4 102.87 53.7227 102.87 55.568C102.87 55.84 102.86 56.24 102.838 56.768C102.822 57.2907 102.801 57.8693 102.774 58.504C102.748 59.1333 102.718 59.7547 102.686 60.368C102.66 60.976 102.636 61.5093 102.614 61.968C102.598 62.4267 102.59 62.7333 102.59 62.888C102.59 63.6613 102.756 64.2693 103.086 64.712C103.417 65.1547 103.852 65.376 104.39 65.376H105.094V65.8Z" fill="#F1DF3D"/>
</svg>
