<svg width="187" height="32" viewBox="0 0 187 32" fill="none" xmlns="http://www.w3.org/2000/svg">
<path d="M60.064 30H63.832L66.976 18.912L70.144 30H73.912L78.616 13.2H75.136L71.92 25.656L68.392 13.2H65.56L62.056 25.656L58.84 13.2H55.36L60.064 30ZM84.6749 30.336C88.2029 30.336 91.0349 27.576 91.0349 24C91.0349 20.424 88.2029 17.664 84.6749 17.664C81.1469 17.664 78.3389 20.424 78.3389 24C78.3389 27.576 81.1469 30.336 84.6749 30.336ZM84.6749 27.312C82.8509 27.312 81.4349 25.944 81.4349 24C81.4349 22.056 82.8509 20.688 84.6749 20.688C86.5229 20.688 87.9389 22.056 87.9389 24C87.9389 25.944 86.5229 27.312 84.6749 27.312ZM96.3089 20.064V18H93.2129V30H96.3089V24.264C96.3089 21.744 98.3489 21.024 99.9569 21.216V17.76C98.4449 17.76 96.9329 18.432 96.3089 20.064ZM112.832 30L107.864 23.928L112.688 18H108.992L104.864 23.28V13.2H101.768V30H104.864V24.552L109.232 30H112.832Z" fill="white"/>
<path d="M120.089 30.336C122.441 30.336 124.481 29.088 125.513 27.216L122.825 25.68C122.345 26.664 121.313 27.264 120.065 27.264C118.217 27.264 116.849 25.896 116.849 24C116.849 22.08 118.217 20.712 120.065 20.712C121.289 20.712 122.321 21.336 122.801 22.32L125.465 20.76C124.481 18.912 122.441 17.664 120.089 17.664C116.441 17.664 113.753 20.424 113.753 24C113.753 27.576 116.441 30.336 120.089 30.336ZM136.083 18V19.416C135.219 18.336 133.923 17.664 132.171 17.664C128.979 17.664 126.339 20.424 126.339 24C126.339 27.576 128.979 30.336 132.171 30.336C133.923 30.336 135.219 29.664 136.083 28.584V30H139.179V18H136.083ZM132.747 27.384C130.851 27.384 129.435 26.016 129.435 24C129.435 21.984 130.851 20.616 132.747 20.616C134.667 20.616 136.083 21.984 136.083 24C136.083 26.016 134.667 27.384 132.747 27.384ZM148.85 20.976V18H146.138V14.64L143.042 15.576V18H140.954V20.976H143.042V25.968C143.042 29.208 144.506 30.48 148.85 30V27.192C147.074 27.288 146.138 27.264 146.138 25.968V20.976H148.85ZM152.569 16.56C153.625 16.56 154.489 15.696 154.489 14.664C154.489 13.632 153.625 12.744 152.569 12.744C151.537 12.744 150.673 13.632 150.673 14.664C150.673 15.696 151.537 16.56 152.569 16.56ZM151.033 30H154.129V18H151.033V30ZM162.675 30.336C166.203 30.336 169.035 27.576 169.035 24C169.035 20.424 166.203 17.664 162.675 17.664C159.147 17.664 156.339 20.424 156.339 24C156.339 27.576 159.147 30.336 162.675 30.336ZM162.675 27.312C160.851 27.312 159.435 25.944 159.435 24C159.435 22.056 160.851 20.688 162.675 20.688C164.523 20.688 165.939 22.056 165.939 24C165.939 25.944 164.523 27.312 162.675 27.312ZM177.885 17.664C176.277 17.664 175.029 18.264 174.309 19.344V18H171.213V30H174.309V23.52C174.309 21.432 175.437 20.544 176.949 20.544C178.341 20.544 179.325 21.384 179.325 23.016V30H182.421V22.632C182.421 19.44 180.429 17.664 177.885 17.664Z" fill="#A3BFFA"/>
<path fill-rule="evenodd" clip-rule="evenodd" d="M42.9111 11.7993L35.2129 7.3546V28H44.2129V30H0.212891V28H4.21289V15.2807L0.485071 16.2127L0 14.2724L21.0896 9H24.2119C23.8673 9.81742 23.6383 10.6793 23.5316 11.5586L23.0495 15.5336L28.2129 12.5524V28H33.2129V7.35582L25.5166 11.7994C25.7383 9.97178 26.6279 8.24351 28.082 6.99998H23.9629C25.3311 5.17833 27.5098 3.99998 29.9639 3.99998C30.1807 3.99998 30.3965 4.00926 30.6084 4.02745L25.0166 0.798811C27.1123 -0.0946215 29.5879 -0.0258959 31.7129 1.20103C32.752 1.80076 33.5938 2.61168 34.2139 3.5482C34.834 2.61168 35.6748 1.80076 36.7139 1.20103C38.8389 -0.0258959 41.3154 -0.0946215 43.4111 0.798811L37.8184 4.02745C38.0312 4.00926 38.2471 3.99998 38.4648 3.99998C40.918 3.99998 43.0967 5.17833 44.4648 6.99998H40.3447C41.7998 8.24351 42.6895 9.97178 42.9111 11.7993ZM24.2129 28V18H18.2129V28H24.2129ZM13.2129 20C13.2129 21.1046 12.3175 22 11.2129 22C10.1083 22 9.21289 21.1046 9.21289 20C9.21289 18.8954 10.1083 18 11.2129 18C12.3175 18 13.2129 18.8954 13.2129 20Z" fill="#A3BFFA"/>
</svg>
